<svg xmlns="http://www.w3.org/2000/svg" viewBox="0 0 64 64" aria-labelledby="title"
aria-describedby="desc" role="img" xmlns:xlink="http://www.w3.org/1999/xlink">
  <title>Address Book</title>
  <desc>A color styled icon from Orion Icon Library.</desc>
  <path data-name="layer2"
  d="M54 12V2H13a5 5 0 0 0-5 5 5 5 0 0 0 5 5z" fill="#9cf"></path>
  <path data-name="opacity" d="M54 12V2H13a5 5 0 0 0-5 5 5 5 0 0 0 5 5z"
  fill="#000064" opacity=".14"></path>
  <path data-name="layer2" d="M58 12v50H13a5 5 0 0 1-5-5V7a5 5 0 0 0 5 5z"
  fill="#9cf"></path>
  <path data-name="layer1" d="M48.5 42.5c.7.4 1.7 1.1 1.5 2.5a7.2 7.2 0 0 1-6.8 5c-4.5 0-10-3.5-14.8-8.4S20 31.3 20 26.8a7.2 7.2 0 0 1 5-6.8c1.4-.2 2 .9 2.5 1.5l3.4 5.2a2.4 2.4 0 0 1-.6 3.3c-1.5 1.2-2.9 1.6 2.6 7.1s5.9 4.1 7.1 2.6a2.4 2.4 0 0 1 3.3-.6z"
  fill="#fff"></path>
  <path data-name="opacity" d="M13 12a5 5 0 0 1-5-5v50a5 5 0 0 0 5 5h1V12z"
  fill="#000064" opacity=".14"></path>
  <path data-name="stroke" d="M48.5 42.5c.7.4 1.7 1.1 1.5 2.5a7.2 7.2 0 0 1-6.8 5c-4.5 0-10-3.5-14.8-8.4S20 31.3 20 26.8a7.2 7.2 0 0 1 5-6.8c1.4-.2 2 .9 2.5 1.5l3.4 5.2a2.4 2.4 0 0 1-.6 3.3c-1.5 1.2-2.9 1.6 2.6 7.1s5.9 4.1 7.1 2.6a2.4 2.4 0 0 1 3.3-.6zM4 20h8M4 30h8M4 40h8M4 50h8m46-38H13a5 5 0 0 1-5-5 5 5 0 0 1 5-5h41v10"
  fill="none" stroke="#2e4369" stroke-linecap="round" stroke-miterlimit="10"
  stroke-width="2" stroke-linejoin="round"></path>
  <path data-name="stroke" d="M13 2a5 5 0 0 0-5 5v50a5 5 0 0 0 5 5h45V12"
  fill="none" stroke="#2e4369" stroke-linecap="round" stroke-miterlimit="10"
  stroke-width="2" stroke-linejoin="round"></path>
</svg>