<svg xmlns="http://www.w3.org/2000/svg" viewBox="0 0 64 64" aria-labelledby="title"
aria-describedby="desc" role="img" xmlns:xlink="http://www.w3.org/1999/xlink">
  <title>Alarm Clock</title>
  <desc>A color styled icon from Orion Icon Library.</desc>
  <path data-name="layer2"
  d="M20 2.847A13.326 13.326 0 0 0 2.847 20zm24 0A13.326 13.326 0 0 1 61.153 20z"
  fill="#fc0"></path>
  <circle data-name="layer1" cx="32" cy="35" r="26" fill="#e1f4f3"></circle>
  <path data-name="opacity" d="M32 9a25.9 25.9 0 0 0-17.513 6.784 26 26 0 0 1 31.026 41.432A26 26 0 0 0 32 9z"
  fill="#000064" opacity=".15"></path>
  <path data-name="opacity" d="M40 39H29V20a2 2 0 0 1 4 0v15h7a2 2 0 0 1 0 4z"
  fill="#000064" opacity=".15"></path>
  <path data-name="opacity" d="M62 15.323a13.3 13.3 0 0 0-4.863-10.292 15.131 15.131 0 0 1-.974 9.978L61.153 20A13.289 13.289 0 0 0 62 15.323z"
  fill="#fff" opacity=".4"></path>
  <path data-name="stroke" d="M20 2.847A13.326 13.326 0 0 0 2.847 20zm24 0A13.326 13.326 0 0 1 61.153 20z"
  fill="none" stroke="#2e4369" stroke-linecap="round" stroke-miterlimit="10"
  stroke-width="2" stroke-linejoin="round"></path>
  <circle data-name="stroke" cx="32" cy="35" r="26" fill="none" stroke="#2e4369"
  stroke-linecap="round" stroke-miterlimit="10" stroke-width="2" stroke-linejoin="round"></circle>
  <path data-name="stroke" fill="none" stroke="#2e4369" stroke-linecap="round"
  stroke-miterlimit="10" stroke-width="2" d="M6 62l8.122-8.122M58 62l-8.122-8.122M43 36H32V17"
  stroke-linejoin="round"></path>
</svg>