<svg xmlns="http://www.w3.org/2000/svg" viewBox="0 0 64 64" aria-labelledby="title"
aria-describedby="desc" role="img" xmlns:xlink="http://www.w3.org/1999/xlink">
  <title>At Sign @</title>
  <desc>A color styled icon from Orion Icon Library.</desc>
  <path data-name="layer1"
  d="M32.3 2a30 30 0 1 0 14 56.5 3 3 0 1 0-2.8-5.3A24 24 0 1 1 56.3 32c0 4.2-1.1 6.6-2.1 7.8a4.5 4.5 0 0 1-3.5 1.8c-1.8 0-3.7-1.3-3.7-4.2v-18a3 3 0 1 0-6 0v.3A15.6 15.6 0 1 0 42.5 43a9.4 9.4 0 0 0 8.2 4.6 10.5 10.5 0 0 0 8.2-4.1c2.2-2.8 3.4-6.8 3.4-11.5a30 30 0 0 0-30-30zm-.9 39.6A9.6 9.6 0 1 1 41 32a9.6 9.6 0 0 1-9.6 9.6z"
  fill="#8ca0c8"></path>
  <path data-name="stroke" d="M32 2a30 30 0 1 0 14 56.5 3 3 0 1 0-2.8-5.3A24 24 0 1 1 56 32c0 4.2-1.1 6.6-2.1 7.8a4.5 4.5 0 0 1-3.5 1.8c-1.8 0-3.7-1.3-3.7-4.2v-18a3 3 0 1 0-6 0v.3A15.6 15.6 0 1 0 42.2 43a9.4 9.4 0 0 0 8.2 4.6 10.5 10.5 0 0 0 8.2-4.1C60.8 40.7 62 36.7 62 32A30 30 0 0 0 32 2zm-.9 39.6a9.6 9.6 0 1 1 9.6-9.6 9.6 9.6 0 0 1-9.6 9.6z"
  fill="none" stroke="#2e4369" stroke-linecap="round" stroke-miterlimit="10"
  stroke-width="2" stroke-linejoin="round"></path>
</svg>