<svg xmlns="http://www.w3.org/2000/svg" viewBox="0 0 64 64" aria-labelledby="title"
aria-describedby="desc" role="img" xmlns:xlink="http://www.w3.org/1999/xlink">
  <title>Bank Cards</title>
  <desc>A color styled icon from Orion Icon Library.</desc>
  <rect data-name="layer3"
  x="2" y="29" width="48" height="30" rx="2.4" ry="2.4" fill="#69c492"></rect>
  <path data-name="layer2" d="M53.1 6.6A2.4 2.4 0 0 0 50 5.2L9.6 19.9A2.4 2.4 0 0 0 8.2 23l1.9 5.2L55 11.8z"
  fill="#7b8baf"></path>
  <path data-name="layer1" d="M61.9 30.6L55 11.8 10 28.2l.3.8h37.3a2.4 2.4 0 0 1 2.4 2.4v6l10.4-3.8a2.4 2.4 0 0 0 1.5-3z"
  fill="#78d1f4"></path>
  <path data-name="opacity" d="M50 31.4a2.4 2.4 0 0 0-2.4-2.4H4.4A2.4 2.4 0 0 0 2 31.4V37h48z"
  fill="#000064" opacity=".15"></path>
  <path data-name="stroke" d="M10.3 29l-2.2-6.1a2.4 2.4 0 0 1 1.4-3.1L50.1 5.1a2.4 2.4 0 0 1 3.1 1.4l8.7 24a2.4 2.4 0 0 1-1.4 3.1L50 37.4m-39.9-9.2L55 11.8m-8.3 9.8l4.5-1.6"
  fill="none" stroke="#2e4369" stroke-linecap="round" stroke-linejoin="round"
  stroke-width="2"></path>
  <rect data-name="stroke" x="2" y="29" width="48" height="30" rx="2.4"
  ry="2.4" fill="none" stroke="#2e4369" stroke-linecap="round" stroke-linejoin="round"
  stroke-width="2"></rect>
  <path data-name="stroke" fill="none" stroke="#2e4369" stroke-linecap="round"
  stroke-linejoin="round" stroke-width="2" d="M10 43h14m12-6h6M10 51h2m8 0h2m8 0h2m8 0h2"></path>
</svg>