<svg xmlns="http://www.w3.org/2000/svg" viewBox="0 0 64 64" aria-labelledby="title"
aria-describedby="desc" role="img" xmlns:xlink="http://www.w3.org/1999/xlink">
  <title>Bitcoin Sign</title>
  <desc>A color styled icon from Orion Icon Library.</desc>
  <circle data-name="layer1"
  cx="32" cy="32" r="30" fill="#fc6"></circle>
  <path data-name="opacity" d="M34 60A30 30 0 0 1 11.8 9.8a30 30 0 1 0 42.4 42.4A29.9 29.9 0 0 1 34 60z"
  fill="#000064" opacity=".15"></path>
  <path data-name="opacity" d="M32 2A29.9 29.9 0 0 0 8.9 12.9a30 30 0 0 1 42.2 42.2A30 30 0 0 0 32 2z"
  fill="#fff" opacity=".2"></path>
  <path data-name="stroke" d="M24 30h12a6.8 6.8 0 0 0 7-7 6.8 6.8 0 0 0-7-7H24v32h12.7c4.8 0 9.3-4.2 9.3-9s-5.2-9-10-9m-8-14v-4m6 4v-4m-6 40v-4m6 4v-4"
  fill="none" stroke="#2e4369" stroke-linecap="round" stroke-linejoin="round"
  stroke-width="2"></path>
  <ellipse data-name="stroke" cx="32" cy="32" rx="30" ry="30" fill="none"
  stroke="#2e4369" stroke-linecap="round" stroke-linejoin="round" stroke-width="2"></ellipse>
</svg>