<svg xmlns="http://www.w3.org/2000/svg" viewBox="0 0 64 64" aria-labelledby="title"
aria-describedby="desc" role="img" xmlns:xlink="http://www.w3.org/1999/xlink">
  <title>Bookmark Archive</title>
  <desc>A color styled icon from Orion Icon Library.</desc>
  <path data-name="layer2"
  d="M51 12a3 3 0 0 1 3 3v27l-6-5-6 5V15a3 3 0 0 0-3-3z" fill="#f27e7c"></path>
  <path data-name="layer1" d="M54 20v22l-6-5-6 5V20H10v33a3 3 0 0 1-3 3h52a3 3 0 0 0 3-3V20z"
  fill="#f8da82"></path>
  <path data-name="opacity" fill="#000064" opacity=".15" d="M42 40.6V20h-4v23.9l4-3.3zm2.8-1L50 44v-5.3L48 37l-3.2 2.6z"></path>
  <path data-name="layer2" d="M34 20v-5a3 3 0 0 1 3-3h2a3 3 0 0 1 3 3v5z"
  fill="#f27e7c"></path>
  <path data-name="opacity" d="M34 20v-5a3 3 0 0 1 3-3h2a3 3 0 0 1 3 3v5z"
  fill="#000064" opacity=".15"></path>
  <path data-name="layer1" d="M37 12H20V8H2v45a3 3 0 0 0 3 3h2a3 3 0 0 0 3-3V20h24v-5a3 3 0 0 1 3-3z"
  fill="#f8da82"></path>
  <path data-name="opacity" d="M37 12H20V8H2v45a3 3 0 0 0 3 3h2a3 3 0 0 0 3-3V20h24v-5a3 3 0 0 1 3-3z"
  fill="#000064" opacity=".15"></path>
  <path data-name="opacity" d="M51 12H39a3 3 0 0 1 3 3v1h12v-1a3 3 0 0 0-3-3z"
  fill="#fff" opacity=".2"></path>
  <path data-name="stroke" d="M42 20H10v33a3 3 0 0 1-3 3" fill="none"
  stroke="#2e4369" stroke-linecap="round" stroke-miterlimit="10" stroke-width="2"
  stroke-linejoin="round"></path>
  <path data-name="stroke" d="M38 12H20V8H2v45a3 3 0 0 0 3 3h54a3 3 0 0 0 3-3V20h-8"
  fill="none" stroke="#2e4369" stroke-linecap="round" stroke-miterlimit="10"
  stroke-width="2" stroke-linejoin="round"></path>
  <path data-name="stroke" d="M38 12h13a3 3 0 0 1 3 3v27l-6-5-6 5V15a3 3 0 0 0-3-3h-2a3 3 0 0 0-3 3v5"
  fill="none" stroke="#2e4369" stroke-linecap="round" stroke-miterlimit="10"
  stroke-width="2" stroke-linejoin="round"></path>
</svg>