<svg xmlns="http://www.w3.org/2000/svg" viewBox="0 0 64 64" aria-labelledby="title"
aria-describedby="desc" role="img" xmlns:xlink="http://www.w3.org/1999/xlink">
  <title>Call Contact</title>
  <desc>A color styled icon from Orion Icon Library.</desc>
  <path data-name="layer2"
  d="M57 32c-1.4-.2-2 .9-2.5 1.5l-3.4 5.2a2.4 2.4 0 0 0 .6 3.3c1.4 1.2 2.9 2.2-2.6 7.7s-6 3.5-7.2 2.1a2.4 2.4 0 0 0-3.3-.6l-5.2 3.4c-.7.5-1.7 1.1-1.5 2.5a7.2 7.2 0 0 0 6.8 5c4.5 0 10-3.5 14.8-8.4S62 43.3 62 38.8a7.2 7.2 0 0 0-5-6.8z"
  fill="#8fa9d8"></path>
  <path data-name="layer1" d="M42 51h5.8l1.4-1.3.5-.5c-.7-2.2-2.8-5.7-9.1-6.9-8.1-1.7-8.6-3.7-8.6-5.3v-2a14.1 14.1 0 0 0 4-7c2.5 0 4-3 4-6 0-.8 0-4-2-4C43 3.6 28.4-2 18 5c-4.4 0-5.6 6.6-4 13-2 0-2 3.2-2 4 0 3 1.5 6 4 6a13.7 13.7 0 0 0 4 7v2c0 1.6-.5 3.6-8.6 5.2S2 51 2 51h37a2.3 2.3 0 0 1 3 .7z"
  fill="#a5d0ec"></path>
  <path data-name="opacity" d="M42 51.7V51h5.8l1.4-1.3.5-.5c-.6-1.9-2.3-4.8-6.8-6.3a2.7 2.7 0 0 0 .9 1.2c1.4 1.1 2.8 2.1-2.2 7.3zM20 28c.8 3 4.1 5.3 6 7v2c0 1.6-.5 3.6-8.6 5.2S8 51 8 51H2s0-7 9.4-8.8S20 38.6 20 37v-2a13.6 13.6 0 0 1-4-7c-2.5 0-4-3-4-6 0-.8 0-4 2-4-1.6-6.4-.4-13 4-13a16.7 16.7 0 0 1 12.5-2.7A17.8 17.8 0 0 0 24 5c-4.4 0-7.6 6.6-6 13 0 0-1 8 2 10z"
  fill="#000064" opacity=".15"></path>
  <path data-name="stroke" d="M49.7 49.2c-.7-2.2-2.8-5.7-9.1-7-8.1-1.6-8.6-3.6-8.6-5.2v-2a14.1 14.1 0 0 0 4-7c2.5 0 4-3 4-6 0-.8 0-4-2-4C43 3.6 28.4-2 18 5c-4.4 0-5.6 6.6-4 13-2 0-2 3.2-2 4 0 3 1.5 6 4 6a14.2 14.2 0 0 0 4 7v2c0 1.6-.5 3.6-8.6 5.2S2 51 2 51h36.9"
  fill="none" stroke="#2e4369" stroke-linecap="round" stroke-linejoin="round"
  stroke-width="2"></path>
  <path data-name="stroke" d="M57 32c-1.4-.2-2 .9-2.5 1.5l-3.4 5.2a2.4 2.4 0 0 0 .6 3.3c1.4 1.2 2.9 2.2-2.6 7.7s-6 3.5-7.2 2.1a2.4 2.4 0 0 0-3.3-.6l-5.2 3.4c-.7.5-1.7 1.1-1.5 2.5a7.2 7.2 0 0 0 6.8 5c4.5 0 10-3.5 14.8-8.4S62 43.3 62 38.8a7.2 7.2 0 0 0-5-6.8z"
  fill="none" stroke="#2e4369" stroke-linecap="round" stroke-linejoin="round"
  stroke-width="2"></path>
</svg>