<svg viewBox="0 0 64 64" xmlns="http://www.w3.org/2000/svg" aria-labelledby="title"
aria-describedby="desc" role="img" xmlns:xlink="http://www.w3.org/1999/xlink">
  <title>Championship</title>
  <desc>A color styled icon from Orion Icon Library.</desc>
  <path fill="#fc6" d="M31 46.883c0 4-6 8-10 8h-3a3 3 0 0 0-3 3v3h32v-3a3 3 0 0 0-3-3h-3c-4 0-10-4-10-8M47 21a16 16 0 0 1-32 0V.884h32z"
  data-name="layer1"></path>
  <path opacity=".15" fill="#000064" d="M23 55h3c2.354 0 5.392-1.448 7.5-3.4a6.69 6.69 0 0 1-2.5-4.629c0 4-6 8.029-10 8.029h-3a2.9 2.9 0 0 0-3 2.883V61h5v-3.117A2.9 2.9 0 0 1 23 55zm-3-34V1h-5v20a15.942 15.942 0 0 0 16 15.883 16.153 16.153 0 0 0 2.5-.213A15.91 15.91 0 0 1 20 21z"
  data-name="opacity"></path>
  <path opacity=".4" fill="#fff" d="M36.162.884V21c0 7.925-1.323 14.476-5.662 15.67a5.339 5.339 0 0 0 1.419.213C36.934 36.883 43 29.772 43 21V.884zM41 54.883h-3a7.555 7.555 0 0 1-1.536-.173l-.158.2A2.991 2.991 0 0 1 39 57.883v3h5v-3a3 3 0 0 0-3-3z"
  data-name="opacity"></path>
  <path stroke-width="2" stroke-linejoin="round" stroke-linecap="round"
  stroke="#2e4369" fill="none" d="M31 36.883v10c0 4-6 8-10 8h-3a3 3 0 0 0-3 3v3h32v-3a3 3 0 0 0-3-3h-3c-4 0-10-4-10-8"
  data-name="stroke"></path>
  <path stroke-width="2" stroke-linejoin="round" stroke-linecap="round"
  stroke="#2e4369" fill="none" d="M47 21a16 16 0 0 1-32 0V.884h32z" data-name="stroke"></path>
  <path stroke-width="2" stroke-linejoin="round" stroke-linecap="round"
  stroke="#2e4369" fill="none" d="M15 6.748c-6-1.075-10 2.477-10 8s4.475 12.136 10 12.136h1.136M47 6.748c6-1.075 10 2.477 10 8s-4.469 12.137-9.992 12.137h-1.143"
  data-name="stroke"></path>
</svg>