<svg xmlns="http://www.w3.org/2000/svg" viewBox="0 0 64 64" aria-labelledby="title"
aria-describedby="desc" role="img" xmlns:xlink="http://www.w3.org/1999/xlink">
  <title>Chart</title>
  <desc>A color styled icon from Orion Icon Library.</desc>
  <path data-name="layer4"
  fill="#ebf5ff" d="M38 18V2H10v60h44V18H38z"></path>
  <path data-name="layer3" fill="#fff" d="M54 18L38 2v16h16z"></path>
  <path data-name="opacity" fill="#000064" opacity=".15" d="M33.1 2v23H54v-7H38V2h-4.9z"></path>
  <path data-name="layer2" d="M44.8 37.1a12.9 12.9 0 1 1-12.9-13H33v13z"
  fill="#ff8b76"></path>
  <path data-name="layer1" d="M33 37.1h14A15.1 15.1 0 0 0 33 22z"
  fill="#61e0b2"></path>
  <path data-name="stroke" fill="none" stroke="#2e4369" stroke-linecap="round"
  stroke-miterlimit="10" stroke-width="2" d="M10 2v60h44V18L38 2H10z" stroke-linejoin="round"></path>
  <path data-name="stroke" fill="none" stroke="#2e4369" stroke-linecap="round"
  stroke-miterlimit="10" stroke-width="2" d="M38 2v16h16m-9.2 18.9A12.9 12.9 0 1 1 31.9 24H33"
  stroke-linejoin="round"></path>
  <path data-name="stroke" d="M33 36.9h14a15.1 15.1 0 0 0-14-15z"
  fill="none" stroke="#2e4369" stroke-linecap="round" stroke-miterlimit="10"
  stroke-width="2" stroke-linejoin="round"></path>
</svg>