<svg xmlns="http://www.w3.org/2000/svg" viewBox="0 0 64 64" aria-labelledby="title"
aria-describedby="desc" role="img" xmlns:xlink="http://www.w3.org/1999/xlink">
  <title>Chat</title>
  <desc>A color styled icon from Orion Icon Library.</desc>
  <path data-name="layer2"
  d="M42 8H22a20 20 0 0 0 0 40h2v10l12-10h6a20 20 0 1 0 0-40z" fill="#a6dbff"></path>
  <path data-name="opacity" d="M46 42H26A20 20 0 0 1 7.6 14.1a20.1 20.1 0 0 0-3.3 4.5l-.8 1.6v.3L2.9 22v.5L2.4 24c-.1.3-.1.6-.1 1s-.1.7-.1 1-.2 1.3-.2 2a20 20 0 0 0 20 20h2v10l12-10h8.4l1.3-.2h.5l1.7-.4h.1l1.5-.6.5-.2 1.1-.5.5-.3 1.4-.9.2-.2 1.1-.8.5-.4.8-.8.5-.4 1.1-1.2.3-.4.7-1 .4-.6.5-.9.3-.6.7-1.5A19.9 19.9 0 0 1 46 42z"
  fill="#000064" opacity=".14"></path>
  <path data-name="opacity" d="M46 24c12 4 11.7-.7 10.4-3.8a17.6 17.6 0 0 0-2.8-3.9c-5.6-5.4-11.8-5.2-15.7-3.5S34 20 46 24z"
  fill="#fff" opacity=".4"></path>
  <circle data-name="layer1" cx="20" cy="28" r="2" fill="#2e4369"></circle>
  <circle data-name="layer1" cx="32" cy="28" r="2" fill="#2e4369"></circle>
  <circle data-name="layer1" cx="44" cy="28" r="2" fill="#2e4369"></circle>
  <path data-name="stroke" d="M42 8H22a20 20 0 0 0 0 40h2v10l12-10h6a20 20 0 0 0 0-40z"
  fill="none" stroke="#2e4369" stroke-linecap="round" stroke-miterlimit="10"
  stroke-width="2" stroke-linejoin="round"></path>
  <circle data-name="stroke" cx="20" cy="28" r="2" fill="none" stroke="#2e4369"
  stroke-linecap="round" stroke-miterlimit="10" stroke-width="2" stroke-linejoin="round"></circle>
  <circle data-name="stroke" cx="32" cy="28" r="2" fill="none"
  stroke="#2e4369" stroke-linecap="round" stroke-miterlimit="10" stroke-width="2"
  stroke-linejoin="round"></circle>
  <circle data-name="stroke" cx="44" cy="28" r="2" fill="none"
  stroke="#2e4369" stroke-linecap="round" stroke-miterlimit="10" stroke-width="2"
  stroke-linejoin="round"></circle>
</svg>