<svg xmlns="http://www.w3.org/2000/svg" viewBox="0 0 64 64" aria-labelledby="title"
aria-describedby="desc" role="img" xmlns:xlink="http://www.w3.org/1999/xlink">
  <title>Coins</title>
  <desc>A color styled icon from Orion Icon Library.</desc>
  <path data-name="layer1"
  d="M20 35.9c-10 0-18 2.1-18 4.9 0 .1 0 .2.1.2H2v15.9c0 2.8 8.1 5.1 18 5.1s18-2.3 18-5.1v-16c0-2.8-8.1-5-18-5z"
  fill="#fc6"></path>
  <path data-name="layer1" d="M44 2C34 2 26 4 26 6.8c0 .1 0 .2.1.2H26v29.1c7 .7 12 2.6 12 4.8v10.8c1.9.2 3.9.3 6 .3 9.9 0 18-2.3 18-5.1V7.1C62 4.3 53.9 2 44 2z"
  fill="#fc6"></path>
  <path d="M2 40.9zm0 .1v15.9c0 2.4 6 4.4 14 4.9v-16C8.1 45.4 2.1 43.4 2 41zM26 7.1v29h.1a34.5 34.5 0 0 1 4.4.7h.4l1 .2 1.1.3h.2l1 .3h.4l.5.2h.4l.3.2h.4l.2.2.2.2.3.2h.2l.2.2v1.5h.1v.4-28.9C31 11.2 26 9.3 26 7.1z"
  fill="#000064" opacity=".15"></path>
  <ellipse data-name="opacity" cx="44" cy="7.1" rx="18" ry="5.1"
  fill="#fff" opacity=".25"></ellipse>
  <ellipse data-name="opacity" cx="20" cy="40.9" rx="18" ry="5.1"
  fill="#fff" opacity=".25"></ellipse>
  <ellipse data-name="stroke" cx="44" cy="7.1" rx="18" ry="5.1"
  fill="none" stroke="#2e4369" stroke-linecap="round" stroke-linejoin="round"
  stroke-width="2"></ellipse>
  <path data-name="stroke" d="M26 14.9c0 2.8 8.1 5.1 18 5.1s18-2.3 18-5.1m-36 8c0 2.8 8.1 5.1 18 5.1s18-2.3 18-5.1m-36 8c0 2.8 8.1 5.1 18 5.1s18-2.3 18-5.1M38 43.7c1.9.2 3.9.3 6 .3 9.9 0 18-2.3 18-5.1m-36-2.8V7.5"
  fill="none" stroke="#2e4369" stroke-linecap="round" stroke-linejoin="round"
  stroke-width="2"></path>
  <path data-name="stroke" d="M62 7.1v39.8c0 2.8-8 5.1-18 5.1-2.1 0-4.1-.1-6-.3"
  fill="none" stroke="#2e4369" stroke-linecap="round" stroke-linejoin="round"
  stroke-width="2"></path>
  <ellipse data-name="stroke" cx="20" cy="40.9" rx="18" ry="5.1"
  fill="none" stroke="#2e4369" stroke-linecap="round" stroke-linejoin="round"
  stroke-width="2"></ellipse>
  <path data-name="stroke" d="M2 48.9c0 2.8 8.1 5.1 18 5.1s18-2.3 18-5.1"
  fill="none" stroke="#2e4369" stroke-linecap="round" stroke-linejoin="round"
  stroke-width="2"></path>
  <path data-name="stroke" d="M38 40.9v16c0 2.8-8.1 5.1-18 5.1S2 59.7 2 56.9V41.3"
  fill="none" stroke="#2e4369" stroke-linecap="round" stroke-linejoin="round"
  stroke-width="2"></path>
</svg>