<svg xmlns="http://www.w3.org/2000/svg" viewBox="0 0 64 64" aria-labelledby="title"
aria-describedby="desc" role="img" xmlns:xlink="http://www.w3.org/1999/xlink">
  <title>Contact</title>
  <desc>A color styled icon from Orion Icon Library.</desc>
  <path data-name="layer3"
  fill="#e2cec3" d="M12 2h36v60H12z"></path>
  <path data-name="layer2" d="M53 2h-5v60h5a3 3 0 0 0 3-3V5a3 3 0 0 0-3-3z"
  fill="#f27e7c"></path>
  <path data-name="layer1" d="M38 29.8a8.7 8.7 0 0 1-3 6V37c0 .8.4 2 3.8 2.7S42 44 42 44H22s0-3.6 3.3-4.3S29 37.8 29 37v-1.2a8.2 8.2 0 0 1-3-5.8v-3.7a6.5 6.5 0 0 1 6-6.3 6.3 6.3 0 0 1 6 6z"
  fill="#a5d0ec"></path>
  <path data-name="opacity" d="M18 59V2h-6v60h41a3 3 0 0 0 3-3H18z"
  fill="#000064" opacity=".15"></path>
  <path data-name="stroke" d="M12 62h41a3 3 0 0 0 3-3V5a3 3 0 0 0-3-3H12zM48 2v60M14 8H8m6 16H8m6 32H8m6-16H8"
  fill="none" stroke="#2e4369" stroke-linecap="round" stroke-linejoin="round"
  stroke-width="2"></path>
  <path data-name="stroke" d="M38 29.8a8.7 8.7 0 0 1-3 6V37c0 .8.4 2 3.8 2.7S42 44 42 44H22s0-3.6 3.3-4.3S29 37.8 29 37v-1.2a8.2 8.2 0 0 1-3-5.8v-3.7a6.5 6.5 0 0 1 6-6.3 6.3 6.3 0 0 1 6 6z"
  fill="none" stroke="#2e4369" stroke-linecap="round" stroke-linejoin="round"
  stroke-width="2"></path>
</svg>