<svg xmlns="http://www.w3.org/2000/svg" viewBox="0 0 64 64" aria-labelledby="title"
aria-describedby="desc" role="img" xmlns:xlink="http://www.w3.org/1999/xlink">
  <title>Copied To Clipboard</title>
  <desc>A color styled icon from Orion Icon Library.</desc>
  <path data-name="layer4"
  d="M32 6h-3.1a5 5 0 0 0-9.8 0H16a2 2 0 0 0-2 2v6h20V8a2 2 0 0 0-2-2z" fill="#c3d1ff"></path>
  <circle data-name="layer3" cx="46" cy="46" r="16" fill="#5edc89"></circle>
  <path data-name="layer2" d="M38 14v18.1a15.9 15.9 0 0 1 8-2.1V10a2 2 0 0 0-2-2H34v6zm-7.5 36H10V14h4V8H4a2 2 0 0 0-2 2v46a2 2 0 0 0 2 2h31.4a16 16 0 0 1-4.9-8z"
  fill="#dda991"></path>
  <path data-name="layer1" d="M38 14H10v36h20.5A15.9 15.9 0 0 1 38 32.2z"
  fill="#ebf5ff"></path>
  <path data-name="opacity" d="M10 11v6h20v-3H14V9h-2a2 2 0 0 0-2 2zm20.5 39a15.9 15.9 0 0 1 7.2-17.7A15.9 15.9 0 0 0 25.1 50H10V17H7v36h18.8a16 16 0 0 0 2.7 5h6.9a16 16 0 0 1-4.9-8z"
  fill="#000064" opacity=".15"></path>
  <path data-name="opacity" d="M46 30a16 16 0 0 0-12.5 6A16 16 0 0 1 56 58.5 16 16 0 0 0 46 30z"
  fill="#fff" opacity=".25"></path>
  <path data-name="stroke" d="M35.4 58H4a2 2 0 0 1-2-2V10a2 2 0 0 1 2-2h9.9M34 8h10a2 2 0 0 1 2 2v20"
  fill="none" stroke="#2e4369" stroke-linecap="round" stroke-miterlimit="10"
  stroke-width="2" stroke-linejoin="round"></path>
  <path data-name="stroke" d="M32 6h-3.1a5 5 0 0 0-9.8 0H16a2 2 0 0 0-2 2v6h20V8a2 2 0 0 0-2-2zm6 26.1V14h-4m-20 0h-4v36h20.5M18 22h12M18 32h12M18 42h12"
  fill="none" stroke="#2e4369" stroke-linecap="round" stroke-miterlimit="10"
  stroke-width="2" stroke-linejoin="round"></path>
  <circle data-name="stroke" cx="46" cy="46" r="16" fill="none" stroke="#2e4369"
  stroke-linecap="round" stroke-miterlimit="10" stroke-width="2" stroke-linejoin="round"></circle>
  <path data-name="stroke" fill="none" stroke="#2e4369" stroke-linecap="round"
  stroke-miterlimit="10" stroke-width="2" d="M53 42l-8 9-5-5" stroke-linejoin="round"></path>
</svg>