<svg xmlns="http://www.w3.org/2000/svg" viewBox="0 0 64 64" aria-labelledby="title"
aria-describedby="desc" role="img" xmlns:xlink="http://www.w3.org/1999/xlink">
  <title>Currency</title>
  <desc>A color styled icon from Orion Icon Library.</desc>
  <path data-name="layer2"
  fill="#9cc4a4" d="M54 39h8V3H2v36h52z"></path>
  <circle data-name="opacity" cx="32" cy="21" r="8" fill="#000064"
  opacity=".15"></circle>
  <path data-name="layer1" d="M42 29c-6.6 0-12 1.8-12 4v24c0 2.2 5.4 4 12 4s12-1.8 12-4V33c0-2.2-5.4-4-12-4z"
  fill="#fc6"></path>
  <path data-name="opacity" d="M12 3H2v10A9.7 9.7 0 0 0 12 3zM2 29v10h10A9.7 9.7 0 0 0 2 29zM52 3a9.7 9.7 0 0 0 10 10V3z"
  fill="#fff" opacity=".25"></path>
  <ellipse data-name="opacity" cx="42" cy="33" rx="12" ry="4" fill="#fff"
  opacity=".25"></ellipse>
  <path data-name="opacity" d="M30 33h-5v6h5v18c0 1.9 3.8 3.4 9 3.9v-24c-5.2-.5-9-2-9-3.9z"
  fill="#000064" opacity=".15"></path>
  <ellipse data-name="stroke" cx="42" cy="33" rx="12" ry="4" fill="none"
  stroke="#2e4369" stroke-linecap="round" stroke-linejoin="round" stroke-width="2"></ellipse>
  <path data-name="stroke" d="M54 41c0 2.2-5.4 4-12 4s-12-1.8-12-4m24 8c0 2.2-5.4 4-12 4s-12-1.8-12-4m0-10H2V3h60v36h-8"
  fill="none" stroke="#2e4369" stroke-linecap="round" stroke-linejoin="round"
  stroke-width="2"></path>
  <circle data-name="stroke" cx="32" cy="21" r="8" fill="none" stroke="#2e4369"
  stroke-linecap="round" stroke-linejoin="round" stroke-width="2"></circle>
  <path data-name="stroke" fill="none" stroke="#2e4369" stroke-linecap="round"
  stroke-linejoin="round" stroke-width="2" d="M12 21h4m32 0h4M12 3A10 10 0 0 1 2 13m60 0A10 10 0 0 1 52 3M2 29a10 10 0 0 1 10 10m18-6v24c0 2.2 5.4 4 12 4s12-1.8 12-4V33"></path>
</svg>