<svg xmlns="http://www.w3.org/2000/svg" viewBox="0 0 64 64" aria-labelledby="title"
aria-describedby="desc" role="img" xmlns:xlink="http://www.w3.org/1999/xlink">
  <title>Customer Support</title>
  <desc>A color styled icon from Orion Icon Library.</desc>
  <path data-name="layer5"
  d="M26 4.4c.1 2.1 0 11.9-8 14.6v7c0 6.1 2.4 11.3 6 14.5V44c0 1.7.4 4.1-6.1 6L28 62h8l9.6-12c-6.3-1.9-5.6-4.3-5.6-6v-5c2 0 6-3 6-7V18C28 18 26.2 6.7 26 4.4z"
  fill="#ffe1e1"></path>
  <path data-name="layer4" d="M40 38.9a2.9 2.9 0 0 0-2.9-2.9h-2.2a2.9 2.9 0 0 0-2.9 2.9 3 3 0 0 0 2.9 3.1H37a3 3 0 0 0 3-3.1z"
  fill="#536897"></path>
  <path data-name="layer3" d="M51 20h-5v6s0 3.1.3 7H51a3.3 3.3 0 0 0 3-3v-7a3.3 3.3 0 0 0-3-3zm-33 0h-6a3.3 3.3 0 0 0-3 3v7a3.3 3.3 0 0 0 3 3h5.2c.6-3.8.8-7 .8-7z"
  fill="#8ca0c8"></path>
  <path data-name="opacity" d="M51 29h-4.7c-.3-3.8-.3-7-.3-7v4s0 3.1.3 7H51a3.3 3.3 0 0 0 3-3v-4a3.3 3.3 0 0 1-3 3zm-33.8 0H12a3.3 3.3 0 0 1-3-3v4a3.3 3.3 0 0 0 3 3h5.2c.6-3.8.8-7 .8-7v-4s-.2 3.1-.8 7z"
  fill="#000064" opacity=".14"></path>
  <path data-name="layer1" d="M32 2c-6.6 0-14 3.6-14 14v3c8-2.7 8.1-12.5 8-14.6V4v.4C26.2 6.7 28 18 46 18v-2C46 5.6 38.6 2 32 2z"
  fill="#e27250"></path>
  <path data-name="layer2" d="M61 62a14.3 14.3 0 0 0-11.4-11l-4-1L36 62zM13.6 51A14.6 14.6 0 0 0 2 62h26L17.9 50z"
  fill="#dbf1ff"></path>
  <path data-name="layer1" d="M24 44v-3.5c-3.6-3.2-6-8.4-6-14.5 0 0-1 16-5 20a10.8 10.8 0 0 0 4.9 4c6.5-1.9 6.1-4.3 6.1-6zm26 2c-4-4-4-20-4-20v6c0 4-4 7-6 7v5c0 1.7-.7 4.1 5.4 6a10.7 10.7 0 0 0 4.6-4z"
  fill="#e27250"></path>
  <path data-name="opacity" d="M24 44v-3.5c-3.6-3.2-6-8.4-6-14.5 0 0-1 16-5 20a10.8 10.8 0 0 0 4.9 4c6.5-1.9 6.1-4.3 6.1-6zm26 2c-4-4-4-20-4-20v6c0 4-4 7-6 7v5c0 1.7-.7 4.1 5.4 6a10.7 10.7 0 0 0 4.6-4z"
  fill="#000064" opacity=".14"></path>
  <path data-name="opacity" d="M30 42c-7-2-8-9-8-13V17c0-3 0-12.9 5.6-14.4C22.5 3.9 18 7.9 18 16v10c0 6.1 2.4 11.3 6 14.5V44c0 1.7.4 4.1-6.1 6l-4.3 1A14.6 14.6 0 0 0 2 62h7c0-2 1-5 9-8s9-7 9-7 2 2 6 0 4.4-5 4.4-5l2.6-3h-7a3.2 3.2 0 0 0-3 3z"
  fill="#000064" opacity=".14"></path>
  <path data-name="stroke" d="M24 40.5V44c0 2 .6 5-10.4 7A14.6 14.6 0 0 0 2 62h59a14.3 14.3 0 0 0-11.4-11C39 49 40 46 40 44v-5m6.4-6H51a3.3 3.3 0 0 0 3-3v-7a3.3 3.3 0 0 0-3-3h-5m-28 0h-6a3.3 3.3 0 0 0-3 3v7a3.3 3.3 0 0 0 3 3h5.2M46 18C26 18 26 4 26 4s1 12-8 15m18 43l9.6-12m-27.7 0L28 62"
  fill="none" stroke="#2e4369" stroke-linecap="round" stroke-miterlimit="10"
  stroke-width="2" stroke-linejoin="round"></path>
  <path data-name="stroke" d="M17.9 50a10.8 10.8 0 0 1-4.9-4c4-4 5-20 5-20m28 0s0 16 4 20a10.7 10.7 0 0 1-4.7 4"
  fill="none" stroke="#2e4369" stroke-linecap="round" stroke-miterlimit="10"
  stroke-width="2" stroke-linejoin="round"></path>
  <path data-name="stroke" d="M26 42c-4.7-2.9-8-8.8-8-16V16C18 5.6 25.4 2 32 2s14 3.6 14 14v16c0 4-4 7-6 7"
  fill="none" stroke="#2e4369" stroke-linecap="round" stroke-miterlimit="10"
  stroke-width="2" stroke-linejoin="round"></path>
  <path data-name="stroke" d="M40 38.9a2.9 2.9 0 0 0-2.9-2.9h-2.2a2.9 2.9 0 0 0-2.9 2.9 3 3 0 0 0 2.9 3.1H37a3 3 0 0 0 3-3.1z"
  fill="none" stroke="#2e4369" stroke-linecap="round" stroke-miterlimit="10"
  stroke-width="2" stroke-linejoin="round"></path>
</svg>