<svg viewBox="0 0 64 64" xmlns="http://www.w3.org/2000/svg" aria-labelledby="title"
aria-describedby="desc" role="img" xmlns:xlink="http://www.w3.org/1999/xlink">
  <title>Detective</title>
  <desc>A color styled icon from Orion Icon Library.</desc>
  <path fill="#e8d4d4"
  d="M32.343 55.659c3.94-3.94 6.96-6.574 9.178-8.6l-.864-2.879A16.616 16.616 0 0 0 44.77 34c3.025-.037 4.23-4.057 4.23-5s.013-4.947-3-5v-.709c-4.085.406-8.779.71-13.7.71-5.093 0-10.024-.326-14.3-.754v.761c-3 .029-3.121 3.782-3.121 4.726S15.491 34 18.536 34c0 3.321 1.854 7.033 4.145 9.653l-.859 3.81c2.524 2.287 6.133 5 10.347 8.27z"
  data-name="layer3"></path>
  <path fill="#8fa9d8" d="M4 21.234A158.776 158.776 0 0 0 32.306 24 147.7 147.7 0 0 0 60 21.234s-8.98-3.491-13.685-7.089C43.878 8.938 41.11 2 39.946 2S34.353 5.149 32 5.149 24.939 2 23.942 2s-5.869 12.145-6.424 12.587S4 21.234 4 21.234zM50.543 51.2l-4.6-9.2c-1.377 3.03-5.6 5.661-13.6 13.661l-.173.076C23.948 49.357 18 45.082 18 42l-4.512 9.027C2 53.239 2 62 2 62h60s-.005-8.2-11.457-10.8z"
  data-name="layer2"></path>
  <path fill="#64738f" d="M17.894 23.236C17.894 26 20 30 24 30s6.125-1.9 6.125-6l.006-.021a149.568 149.568 0 0 1-12.24-.744zm15.879.756v.009c0 4.1 2.125 6 6.125 6 3.975 0 6.078-3.947 6.105-6.709-3.681.364-7.85.647-12.23.7z"
  data-name="layer1"></path>
  <g opacity=".15" data-name="opacity">
    <path fill="#000064" d="M30.6 23.988l-.474-.009h.01zm-12.708-.752a171.582 171.582 0 0 1-3.721-.418c.045.154.258.244.705.244a29.535 29.535 0 0 1 3.022.248c0-.023-.006-.05-.006-.074zm6.608-7.111S26 5.4 31 5.4v-.25a2.369 2.369 0 0 0 .247-.036C28.788 4.764 24.735 2 23.8 2c-1 0-5.8 12.145-6.353 12.587S3.964 21.234 3.964 21.234s3.955.833 10.066 1.585c-.358-1.219 10.47-6.694 10.47-6.694z"></path>
    <path fill="#000064" d="M21.97 28.016c18.531 1.765 23.02-1.13 24.506-3.9a6.656 6.656 0 0 0 .418-.963 4.59 4.59 0 0 0 .044-.125c-13.043 2.446-23.465.926-29.04.279a6.4 6.4 0 0 0 .052.7c-2.948.072-3.07 3.783-3.07 4.721S15.491 34 18.536 34c0 3.321 1.854 7.033 4.145 9.653l-.859 3.81c-.217-.2-.429-.391-.629-.581-.084-.079-.161-.156-.242-.234q-.25-.243-.482-.479l-.218-.223q-.293-.308-.55-.6c-.059-.068-.113-.134-.168-.2q-.2-.24-.376-.471c-.042-.056-.088-.113-.128-.169a8.092 8.092 0 0 1-.477-.742 5.777 5.777 0 0 1-.232-.456c-.018-.04-.04-.081-.056-.12a3.727 3.727 0 0 1-.168-.516 3.423 3.423 0 0 1-.036-.163 2.663 2.663 0 0 1-.053-.461c0-.016-.5-.033-.5-.049L17 42l-4.012 9.027c-.014 0 .224.006.21.009-.343.067-.552.139-.875.217-.009 0 .044.247.035.25-.328.079-.584.5-.891.5C8 53 5.8 54.46 4.408 56.181c0 .005-.009-.109-.014-.1-.12.15-.236.239-.344.389-.012.017-.023 0-.035.02-.1.139-.2.263-.286.4-.021.031-.039.055-.059.086-.078.123-.155.242-.226.364-.034.058-.063.113-.1.17-.053.094-.107.188-.156.282s-.089.179-.133.268c-.029.06-.06.119-.087.177-.06.128-.114.253-.167.378-.008.018-.017.538-.024.555A8.444 8.444 0 0 0 2 62h19.719l.281-.5-2-5.376-2-1.061 3-7.763s.278.7.83.7v-.397a53.927 53.927 0 0 1 5.165 3.467c5 4 8.992-1.029 9.992-5.029-13.002 5-15.017-10.025-15.017-18.025zM48.001 55l-4.182 1.624L43.001 62h3v-2l3.75-1-1.75-4z"></path>
  </g>
  <path stroke-width="2" stroke-linejoin="round" stroke-linecap="round"
  stroke="#2e4369" fill="none" d="M17.61 24.008c-3.045.029-2.926 3.782-2.926 4.726S15.394 34 18.439 34c0 4.714 3.832 10.228 7.172 12.267m12.642.003c3.34-2.04 6.516-7.553 6.516-12.271C47.794 33.963 49 29.943 49 29s.014-4.947-3-5M13.453 51.03C1.844 53.2 2 62 2 62h60s0-8.183-11.41-10.79"
  data-name="stroke"></path>
  <path stroke-width="2" stroke-linejoin="round" stroke-linecap="round"
  stroke="#2e4369" fill="none" d="M18 42c0 4 10 10 22 20H22l-2-6-8-2z" data-name="stroke"></path>
  <path stroke-width="2" stroke-linejoin="round" stroke-linecap="round"
  stroke="#2e4369" fill="none" d="M41.941 62l2-6 8-2-6-12c-1.377 3.03-5.6 5.661-13.6 13.661M17.894 23.236C17.894 26 20 30 24 30s6.125-1.9 6.125-6M46 23.291C46 26.054 43.894 30 39.894 30s-6.125-1.9-6.125-6"
  data-name="stroke"></path>
  <path stroke-width="2" stroke-linejoin="round" stroke-linecap="round"
  stroke="#2e4369" fill="none" d="M4 21.234A158.77 158.77 0 0 0 32.308 24 147.7 147.7 0 0 0 60 21.234s-8.98-3.491-13.686-7.089C43.88 8.938 41.112 2 39.948 2S34.355 5.149 32 5.149 24.941 2 23.944 2s-5.869 12.145-6.424 12.587S4 21.234 4 21.234z"
  data-name="stroke"></path>
  <path stroke-width="2" stroke-linejoin="round" stroke-linecap="round"
  stroke="#2e4369" fill="none" d="M17.894 14A67.426 67.426 0 0 0 32 16a75.761 75.761 0 0 0 14.318-1.857"
  data-name="stroke"></path>
</svg>