<svg xmlns="http://www.w3.org/2000/svg" viewBox="0 0 64 64" aria-labelledby="title"
aria-describedby="desc" role="img" xmlns:xlink="http://www.w3.org/1999/xlink">
  <title>Fax</title>
  <desc>A color styled icon from Orion Icon Library.</desc>
  <rect data-name="layer4"
  x="2" y="10" width="18" height="52" rx="4" ry="4" fill="#8ca0c8"></rect>
  <path data-name="layer4" d="M58 18H20v40a4 4 0 0 1-4 4h42a4 4 0 0 0 4-4V22a4 4 0 0 0-4-4z"
  fill="#8ca0c8"></path>
  <path data-name="opacity" d="M25 58V18h-5v40a4 4 0 0 1-4 4h5a4 4 0 0 0 4-4z"
  fill="#000064" opacity=".14"></path>
  <path data-name="layer3" fill="#dbf1ff" d="M58 18V8l-6-6H26v16h32z"></path>
  <path data-name="opacity" d="M6 58V14a4 4 0 0 1 4-4H6a4 4 0 0 0-4 4v44a4 4 0 0 0 4 4h4a4 4 0 0 1-4-4z"
  fill="#000064" opacity=".14"></path>
  <path data-name="opacity" d="M16 10h-2.8a4 4 0 0 1 3.8 4v44a4 4 0 0 1-4 4h3a4 4 0 0 0 4-4V14a4 4 0 0 0-4-4z"
  fill="#fff" opacity=".25"></path>
  <path data-name="layer2" fill="#a0d6ef" d="M30 24h22v8H30z"></path>
  <circle data-name="layer1" cx="33" cy="39" r="1" fill="#2e4369"></circle>
  <circle data-name="layer1" cx="41" cy="39" r="1" fill="#2e4369"></circle>
  <circle data-name="layer1" cx="49" cy="39" r="1" fill="#2e4369"></circle>
  <circle data-name="layer1" cx="33" cy="47" r="1" fill="#2e4369"></circle>
  <circle data-name="layer1" cx="41" cy="47" r="1" fill="#2e4369"></circle>
  <circle data-name="layer1" cx="49" cy="47" r="1" fill="#2e4369"></circle>
  <circle data-name="layer1" cx="33" cy="55" r="1" fill="#2e4369"></circle>
  <circle data-name="layer1" cx="41" cy="55" r="1" fill="#2e4369"></circle>
  <circle data-name="layer1" cx="49" cy="55" r="1" fill="#2e4369"></circle>
  <path data-name="opacity" fill="#fff" opacity=".25" d="M52 24H40l8 8h4v-8z"></path>
  <path data-name="stroke" fill="none" stroke="#2e4369" stroke-linecap="round"
  stroke-miterlimit="10" stroke-width="2" d="M32 10h20m6 8V8l-6-6H26v16"
  stroke-linejoin="round"></path>
  <rect data-name="stroke" x="2" y="10" width="18" height="52" rx="4"
  ry="4" fill="none" stroke="#2e4369" stroke-linecap="round" stroke-miterlimit="10"
  stroke-width="2" stroke-linejoin="round"></rect>
  <path data-name="stroke" fill="none" stroke="#2e4369" stroke-linecap="round"
  stroke-miterlimit="10" stroke-width="2" d="M8 2v8m9 52h41a4 4 0 0 0 4-4V22a4 4 0 0 0-4-4H20"
  stroke-linejoin="round"></path>
  <path data-name="stroke" fill="none" stroke="#2e4369" stroke-linecap="round"
  stroke-miterlimit="10" stroke-width="2" d="M30 24h22v8H30z" stroke-linejoin="round"></path>
  <circle data-name="stroke" cx="33" cy="39" r="1" fill="none" stroke="#2e4369"
  stroke-linecap="round" stroke-miterlimit="10" stroke-width="2" stroke-linejoin="round"></circle>
  <circle data-name="stroke" cx="41" cy="39" r="1" fill="none"
  stroke="#2e4369" stroke-linecap="round" stroke-miterlimit="10" stroke-width="2"
  stroke-linejoin="round"></circle>
  <circle data-name="stroke" cx="49" cy="39" r="1" fill="none"
  stroke="#2e4369" stroke-linecap="round" stroke-miterlimit="10" stroke-width="2"
  stroke-linejoin="round"></circle>
  <circle data-name="stroke" cx="33" cy="47" r="1" fill="none"
  stroke="#2e4369" stroke-linecap="round" stroke-miterlimit="10" stroke-width="2"
  stroke-linejoin="round"></circle>
  <circle data-name="stroke" cx="41" cy="47" r="1" fill="none"
  stroke="#2e4369" stroke-linecap="round" stroke-miterlimit="10" stroke-width="2"
  stroke-linejoin="round"></circle>
  <circle data-name="stroke" cx="49" cy="47" r="1" fill="none"
  stroke="#2e4369" stroke-linecap="round" stroke-miterlimit="10" stroke-width="2"
  stroke-linejoin="round"></circle>
  <circle data-name="stroke" cx="33" cy="55" r="1" fill="none"
  stroke="#2e4369" stroke-linecap="round" stroke-miterlimit="10" stroke-width="2"
  stroke-linejoin="round"></circle>
  <circle data-name="stroke" cx="41" cy="55" r="1" fill="none"
  stroke="#2e4369" stroke-linecap="round" stroke-miterlimit="10" stroke-width="2"
  stroke-linejoin="round"></circle>
  <circle data-name="stroke" cx="49" cy="55" r="1" fill="none"
  stroke="#2e4369" stroke-linecap="round" stroke-miterlimit="10" stroke-width="2"
  stroke-linejoin="round"></circle>
</svg>