<svg xmlns="http://www.w3.org/2000/svg" viewBox="0 0 64 64" aria-labelledby="title"
aria-describedby="desc" role="img" xmlns:xlink="http://www.w3.org/1999/xlink">
  <title>Find</title>
  <desc>A color styled icon from Orion Icon Library.</desc>
  <circle data-name="layer3"
  cx="23.8" cy="23.8" r="22" fill="#7b8baf"></circle>
  <circle data-name="layer2" cx="23.8" cy="23.8" r="18" fill="#cbd8e6"></circle>
  <path data-name="opacity" d="M23.8 5.8a17.9 17.9 0 0 0-13.7 6.3 18 18 0 0 1 25.4 25.4A18 18 0 0 0 23.8 5.8z"
  fill="#000028" opacity=".25"></path>
  <path data-name="layer1" d="M40.7 37.9l20.9 20.9a2 2 0 0 1 0 2.8 2 2 0 0 1-2.8 0L37.9 40.7"
  fill="#536897"></path>
  <circle data-name="stroke" cx="23.8" cy="23.8" r="22" fill="none"
  stroke="#2e4369" stroke-linecap="round" stroke-linejoin="round" stroke-width="2"></circle>
  <circle data-name="stroke" cx="23.8" cy="23.8" r="18" fill="none"
  stroke="#2e4369" stroke-linecap="round" stroke-linejoin="round" stroke-width="2"></circle>
  <path data-name="stroke" d="M40.7 37.9l20.9 20.9a2 2 0 0 1 0 2.8 2 2 0 0 1-2.8 0L37.9 40.7"
  fill="none" stroke="#2e4369" stroke-linecap="round" stroke-linejoin="round"
  stroke-width="2"></path>
</svg>