<svg xmlns="http://www.w3.org/2000/svg" viewBox="0 0 64 64" aria-labelledby="title"
aria-describedby="desc" role="img" xmlns:xlink="http://www.w3.org/1999/xlink">
  <title>Heart</title>
  <desc>A color styled icon from Orion Icon Library.</desc>
  <path data-name="layer1"
  d="M47 5c-6.5 0-12.9 4.2-15 10-2.1-5.8-8.5-10-15-10A15 15 0 0 0 2 20c0 13 11 26 30 39 19-13 30-26 30-39A15 15 0 0 0 47 5z"
  fill="#f27e7c"></path>
  <path data-name="opacity" d="M22 5.8a16.2 16.2 0 0 0-5-.8A15 15 0 0 0 2 20c0 13 11 26 30 39l.6-.4-.6-.6C4 31 12.4 4.9 22 5.8z"
  fill="#000064" opacity=".15"></path>
  <path data-name="opacity" d="M55.1 27.7c-3.2-1-5.5-5-8.2-7.2s-6.2-5-7.2-8.2c-.3-1.5 1.2-3.6 4.4-4.1a13 13 0 0 1 11.2 3.9 13 13 0 0 1 3.9 11.2c-.6 3.2-2.6 4.7-4.1 4.4z"
  fill="#fff" opacity=".25"></path>
  <path data-name="stroke" d="M47 5c-6.5 0-12.9 4.2-15 10-2.1-5.8-8.5-10-15-10A15 15 0 0 0 2 20c0 13 11 26 30 39 19-13 30-26 30-39A15 15 0 0 0 47 5z"
  fill="none" stroke="#2e4369" stroke-linecap="round" stroke-linejoin="round"
  stroke-width="2"></path>
</svg>