<svg xmlns="http://www.w3.org/2000/svg" viewBox="0 0 64 64" aria-labelledby="title"
aria-describedby="desc" role="img" xmlns:xlink="http://www.w3.org/1999/xlink">
  <title>ID Card</title>
  <desc>A color styled icon from Orion Icon Library.</desc>
  <path data-name="layer3"
  fill="#fff" d="M36 10v6h-8v-6H2v50h60V10H36z"></path>
  <path data-name="layer2" d="M30 46.9c-4-.9-4-2.3-4-3.3v-1.5a9.3 9.3 0 0 0 2.9-6.9v-4.5A6.8 6.8 0 0 0 22 24a6.8 6.8 0 0 0-7 6.7v4.5a9.3 9.3 0 0 0 3 6.9v1.5c0 .9 0 2.4-4.2 3.3S10 52 10 52h24a5.1 5.1 0 0 0-4-5.1z"
  fill="#a5d0ec"></path>
  <path data-name="layer1" fill="#f27e7c" d="M28 4h8v12h-8z"></path>
  <path data-name="opacity" fill="#000064" opacity=".15" d="M33 16v4h-9V10h4v6h5zM8 10v47h54v3H2V10h6z"></path>
  <path data-name="stroke" d="M30 46.9c-4-.9-4-2.3-4-3.3v-1.5a9.3 9.3 0 0 0 2.9-6.9v-4.5A6.8 6.8 0 0 0 22 24a6.8 6.8 0 0 0-7 6.7v4.5a9.3 9.3 0 0 0 3 6.9v1.5c0 .9 0 2.4-4.2 3.3S10 52 10 52h24a5.1 5.1 0 0 0-4-5.1z"
  fill="none" stroke="#2e4369" stroke-linecap="round" stroke-linejoin="round"
  stroke-width="2"></path>
  <path data-name="stroke" fill="none" stroke="#2e4369" stroke-linecap="round"
  stroke-linejoin="round" stroke-width="2" d="M36 10h26v50H2V10h26"></path>
  <path data-name="stroke" fill="none" stroke="#2e4369" stroke-linecap="round"
  stroke-linejoin="round" stroke-width="2" d="M28 4h8v12h-8zm10 20h16m-16 8h10m-10 8h14"></path>
</svg>