<svg viewBox="0 0 64 64" xmlns="http://www.w3.org/2000/svg" aria-labelledby="title"
aria-describedby="desc" role="img" xmlns:xlink="http://www.w3.org/1999/xlink">
  <title>Idea</title>
  <desc>A color styled icon from Orion Icon Library.</desc>
  <path fill="#a5d0ec"
  d="M34 1C20 1 10 6.185 10 17v10a19.973 19.973 0 0 1-4 8c-.867.868-1.25 2.5.938 3.108 1.867.52 2.484.369 2.69 1.7s-.567 2.8.557 3.212.066 1.73 1.275 2.742c.783.655-.959 5.217 3.375 5.217h4.735C21.918 50.975 22 52.651 22 55s-2 6-2 6h28s-4-4.1-4-8c0-6.02 12-15.47 12-32C56 5.194 44 1 34 1z"
  data-name="layer2"></path>
  <path opacity=".15" fill="#000064" d="M14 25V15a13.3 13.3 0 0 1 5.819-11.544C13.824 5.975 10 10.455 10 17v10a19.973 19.973 0 0 1-4 8c-.867.868-1.25 2.5.938 3.108 1.867.52 2.484.369 2.69 1.7s-.567 2.8.557 3.212.066 1.742 1.275 2.755c.783.655-.959 5.23 3.375 5.23h4.735C21.918 51 22 52.664 22 55.012S20 61 20 61h28a18.478 18.478 0 0 1-1.632-2H23.687s2-3.642 2-5.988S25.6 49 23.257 49h-4.736c-4.334 0-2.592-4.574-3.375-5.23-1.209-1.013-.154-2.34-1.275-2.748s-.352-1.889-.557-3.215A3.28 3.28 0 0 1 12 35c0-2 2-8 2-10z"
  data-name="opacity"></path>
  <path fill="#fc6" d="M41.775 13.179a10.981 10.981 0 0 0-17.193-.06 7.99 7.99 0 0 0 1.393 15.859c.254 0 .494-.052.74-.075a10.942 10.942 0 0 0 12.856.02c.146.008.283.043.43.043a7.993 7.993 0 0 0 1.775-15.787z"
  data-name="layer1"></path>
  <path opacity=".25" fill="#fff" d="M41.775 13.179a10.981 10.981 0 0 0-17.193-.06 8.018 8.018 0 0 0-5.182 3.312 8 8 0 0 1 3.179-1.312 10.981 10.981 0 0 1 17.193.06 7.982 7.982 0 0 1 4.79 12.352 7.987 7.987 0 0 0-2.79-14.352z"
  data-name="opacity"></path>
  <path stroke-width="2" stroke-linejoin="round" stroke-linecap="round"
  stroke="#2e4369" fill="none" d="M34 1C20 1 10 6.185 10 17v10a19.973 19.973 0 0 1-4 8c-.867.868-1.25 2.5.938 3.108 1.867.52 2.484.369 2.69 1.7s-.567 2.8.557 3.212.066 1.73 1.275 2.742c.783.655-.959 5.217 3.375 5.217h4.735C21.918 50.975 22 52.651 22 55s-2 6-2 6h28s-4-4.1-4-8c0-6.02 12-15.47 12-32C56 5.194 44 1 34 1z"
  data-name="stroke"></path>
  <path d="M33.334 14.999L28 23.001h10l-5 7.434" stroke-width="2"
  stroke-linejoin="round" stroke-linecap="round" stroke="#2e4369" fill="none"
  data-name="stroke"></path>
  <path stroke-width="2" stroke-linejoin="round" stroke-linecap="round"
  stroke="#2e4369" fill="none" d="M41.775 13.179a10.981 10.981 0 0 0-17.193-.06 7.99 7.99 0 0 0 1.393 15.859c.254 0 .494-.052.74-.075a10.942 10.942 0 0 0 12.856.02c.146.008.283.043.43.043a7.993 7.993 0 0 0 1.775-15.787z"
  data-name="stroke"></path>
</svg>