<svg xmlns="http://www.w3.org/2000/svg" viewBox="0 0 64 64" aria-labelledby="title"
aria-describedby="desc" role="img" xmlns:xlink="http://www.w3.org/1999/xlink">
  <title>Identity</title>
  <desc>A color styled icon from Orion Icon Library.</desc>
  <path data-name="layer3"
  fill="#fff" d="M54 10v6h-8v-6H18v6h-8v-6H2v50h60V10h-8z"></path>
  <path data-name="layer2" d="M34 46.9c4-.9 4-2.3 4-3.3v-1.5a9.3 9.3 0 0 1-2.9-6.9v-4.5a7 7 0 0 1 13.9 0v4.5a9.3 9.3 0 0 1-3 6.9v1.5c0 .9 0 2.4 4.1 3.3S54 52 54 52H30a5.1 5.1 0 0 1 4-5.1z"
  fill="#a5d0ec"></path>
  <path data-name="layer1" fill="#f27e7c" d="M10 4h8v12h-8zm36 0h8v12h-8z"></path>
  <path fill="#000064" d="M50 16v3h-7v-9h3v6h4zm-36 0v4H8v37h54v3H2V10h8v6h4z"
  data-name="opacity" opacity=".15"></path>
  <path data-name="stroke" d="M34 46.9c4-.9 4-2.3 4-3.3v-1.5a9.3 9.3 0 0 1-2.9-6.9v-4.5a7 7 0 0 1 13.9 0v4.5a9.3 9.3 0 0 1-3 6.9v1.5c0 .9 0 2.4 4.1 3.3S54 52 54 52H30a5.1 5.1 0 0 1 4-5.1z"
  fill="none" stroke="#2e4369" stroke-linecap="round" stroke-linejoin="round"
  stroke-width="2"></path>
  <path data-name="stroke" fill="none" stroke="#2e4369" stroke-linecap="round"
  stroke-linejoin="round" stroke-width="2" d="M10 10H2v50h60V10h-8m-36 0h28"></path>
  <path data-name="stroke" fill="none" stroke="#2e4369" stroke-linecap="round"
  stroke-linejoin="round" stroke-width="2" d="M10 4h8v12h-8zm36 0h8v12h-8zM26 25H10m10 8H10m14 8H10"></path>
</svg>