<svg viewBox="0 0 64 64" xmlns="http://www.w3.org/2000/svg" aria-labelledby="title"
aria-describedby="desc" role="img" xmlns:xlink="http://www.w3.org/1999/xlink">
  <title>Key</title>
  <desc>A color styled icon from Orion Icon Library.</desc>
  <path fill="#e2c98a"
  d="M56.728 7.271a18 18 0 0 0-28.715 21L20 36.2V40h-6v6H8v6H4l-2 2v8h8l25.826-25.968a18 18 0 0 0 20.9-28.761zm-5.9 11.558a4 4 0 1 1 0-5.657 4 4 0 0 1 0 5.657z"
  data-name="layer1"></path>
  <path opacity=".16" fill="#000028" d="M56.728 7.272a17.969 17.969 0 0 0-4-3 18 18 0 0 1-20.9 28.76L6 59H2v3h8l25.826-25.968a18 18 0 0 0 20.9-28.761z"
  data-name="opacity"></path>
  <path stroke-width="2" stroke-linejoin="round" stroke-linecap="round"
  stroke="#2e4369" fill="none" d="M56.728 7.272a18 18 0 0 0-28.715 21L20 36.2V40h-6v6H8v6H4l-2 2v8h8l25.826-25.968a18 18 0 0 0 20.9-28.76z"
  data-name="stroke"></path>
  <circle stroke-width="2" stroke-linejoin="round" stroke-linecap="round"
  stroke="#2e4369" fill="none" transform="rotate(-44.999 48 16.001)" r="4"
  cy="16.001" cx="48" data-name="stroke"></circle>
</svg>