<svg xmlns="http://www.w3.org/2000/svg" viewBox="0 0 64 64" aria-labelledby="title"
aria-describedby="desc" role="img" xmlns:xlink="http://www.w3.org/1999/xlink">
  <title>King</title>
  <desc>A color styled icon from Orion Icon Library.</desc>
  <path data-name="layer1"
  d="M32 20c7.7 0 14 1.4 14 3V6l-6 4-8-8-8 8-6-4v17c0-2 6.3-3 14-3z" fill="#fc6"></path>
  <path data-name="layer3" d="M35.9 54l4.8-4.8A5.7 5.7 0 0 1 40 46v-1.8a17.9 17.9 0 0 0 4.9-8.4c3 0 3.7-4.2 3.7-5.2S49 26.1 46 26v-3s-5-3-14-3-14 3-14 3v3c-3 0-3 4-3 5s.4 4.9 3.4 4.9a17.5 17.5 0 0 0 5.8 9.1H24v1a4.2 4.2 0 0 1-.8 3.2l4.9 4.8z"
  fill="#e8d4d4"></path>
  <path data-name="layer2" d="M13.6 53C2 55.2 2 62 2 62h60s.1-7.5-12.4-9c-5.5-.7-7.9-2.2-8.9-3.8L35.9 54h-7.8l-4.9-4.7c-1.2 1.3-3.7 2.6-9.6 3.7z"
  fill="#f27e7c"></path>
  <ellipse data-name="layer1" cx="32" cy="55" rx="4" ry="5" fill="#fc6"></ellipse>
  <path data-name="opacity" d="M35 46c-16 3-11-22-11-25V10l-6-4v20c-3 0-3 4-3 5s.4 4.9 3.4 4.9a17.5 17.5 0 0 0 5.8 9.1H24v1a4.2 4.2 0 0 1-.8 3.2c-1.1 1.3-3.7 2.6-9.5 3.7C2 55.2 2 62 2 62h9.1c1.1-5.2 10.9-7 10.9-7a57.6 57.6 0 0 1 4 5 5.5 5.5 0 0 0 2.5 2h2.7a7.5 7.5 0 0 0 3.8-3c-5 2-6-4-6-5a22.7 22.7 0 0 1 1-4s1 0 5-4z"
  fill="#000064" opacity=".15"></path>
  <path data-name="opacity" d="M46 23V6l-4 2.7v12.2c2.5.5 4 1.2 4 2"
  fill="#fff" opacity=".25"></path>
  <path data-name="stroke" d="M24 45.1v1c0 2 .6 4.9-10.4 6.9S2 62 2 62h60s.1-7.5-12.4-9C40 51.9 40 48 40 46v-1.6M28.1 54L22 48.1M35.9 54l5.7-5.7"
  fill="none" stroke="#2e4369" stroke-linecap="round" stroke-linejoin="round"
  stroke-width="2"></path>
  <path data-name="stroke" d="M18 23v3c-3 0-3 4-3 5s.4 4.9 3.4 4.9A16.8 16.8 0 0 0 25.6 46m12 0a16.8 16.8 0 0 0 7.2-10.1c3 0 3.7-4.2 3.7-5.2S49 26.1 46 26v-3"
  fill="none" stroke="#2e4369" stroke-linecap="round" stroke-linejoin="round"
  stroke-width="2"></path>
  <ellipse data-name="stroke" cx="32" cy="55" rx="4" ry="5" fill="none"
  stroke="#2e4369" stroke-linecap="round" stroke-linejoin="round" stroke-width="2"></ellipse>
  <path data-name="stroke" d="M32 20c7.7 0 14 1.4 14 3V6l-6 4-8-8-8 8-6-4v17c0-2 6.3-3 14-3z"
  fill="none" stroke="#2e4369" stroke-linecap="round" stroke-linejoin="round"
  stroke-width="2"></path>
</svg>