<svg xmlns="http://www.w3.org/2000/svg" viewBox="0 0 64 64" aria-labelledby="title"
aria-describedby="desc" role="img" xmlns:xlink="http://www.w3.org/1999/xlink">
  <title>Label</title>
  <desc>A color styled icon from Orion Icon Library.</desc>
  <path data-name="layer1"
  d="M52.7 11.3L31.6 9.9 2 39.5 24.6 62l29.5-29.6zm-8.4 11.3a2 2 0 1 1 0-2.8 2 2 0 0 1 0 2.8z"
  fill="#78d1f4"></path>
  <path data-name="opacity" opacity=".2" d="M27.6 56.1L6.5 35l-4.6 4.5L24.5 62 54 32.4l-.1-2.6-26.3 26.3z"></path>
  <path data-name="stroke" fill="none" stroke="#2e4369" stroke-linecap="round"
  stroke-linejoin="round" stroke-width="2" d="M24.6 62L2 39.5 31.6 9.9l21.1 1.4 1.4 21.1L24.6 62z"></path>
  <circle data-name="stroke" cx="42.9" cy="21.2" r="2" transform="rotate(-45 42.86 21.147)"
  fill="none" stroke="#2e4369" stroke-linecap="round" stroke-linejoin="round"
  stroke-width="2"></circle>
  <path data-name="stroke" d="M45.7 5.7C50 1.4 56.3.8 59.8 4.3s2.9 9.8-1.4 14.1-10.6 4.9-14.1 1.4"
  fill="none" stroke="#2e4369" stroke-linecap="round" stroke-linejoin="round"
  stroke-width="2"></path>
</svg>