<svg xmlns="http://www.w3.org/2000/svg" viewBox="0 0 64 64" aria-labelledby="title"
aria-describedby="desc" role="img" xmlns:xlink="http://www.w3.org/1999/xlink">
  <title>Law</title>
  <desc>A color styled icon from Orion Icon Library.</desc>
  <circle data-name="layer1"
  cx="32" cy="12" r="4" fill="#efbc8b"></circle>
  <path data-name="layer1" d="M12 42a10 10 0 0 0 10-10H2a10 10 0 0 0 10 10zm40 0a10 10 0 0 1-10-10h20a10 10 0 0 1-10 10z"
  fill="#efbc8b"></path>
  <path data-name="opacity" d="M8 32H2a10 10 0 0 0 13 9.5A10 10 0 0 1 8 32zm40 0h-6a10 10 0 0 0 13 9.5 10 10 0 0 1-7-9.5z"
  fill="#000064" opacity=".15"></path>
  <path data-name="stroke" fill="none" stroke="#2e4369" stroke-linecap="round"
  stroke-linejoin="round" stroke-width="2" d="M32 16v40m-10 0h20M28 12H12L2 32"></path>
  <circle data-name="stroke" cx="32" cy="12" r="4" fill="none" stroke="#2e4369"
  stroke-linecap="round" stroke-linejoin="round" stroke-width="2"></circle>
  <path data-name="stroke" fill="none" stroke="#2e4369" stroke-linecap="round"
  stroke-linejoin="round" stroke-width="2" d="M12 12l10 20m14-20h16l10 20M52 12L42 32M12 42a10 10 0 0 0 10-10H2a10 10 0 0 0 10 10zm40 0a10 10 0 0 1-10-10h20a10 10 0 0 1-10 10z"></path>
</svg>