<svg xmlns="http://www.w3.org/2000/svg" viewBox="0 0 64 64" aria-labelledby="title"
aria-describedby="desc" role="img" xmlns:xlink="http://www.w3.org/1999/xlink">
  <title>Like</title>
  <desc>A color styled icon from Orion Icon Library.</desc>
  <circle data-name="layer2"
  cx="46" cy="44" r="16" fill="#78d1f4"></circle>
  <path data-name="opacity" d="M49 58a16 16 0 0 1-10.3-28.2 16 16 0 1 0 17.6 26.4A15.9 15.9 0 0 1 49 58z"
  fill="#000064" opacity=".15"></path>
  <path data-name="layer1" d="M46 28a15.9 15.9 0 0 1 8.4 2.4A25.4 25.4 0 0 0 58 17.9 13.9 13.9 0 0 0 44 4c-6.1 0-12 3.9-14 9.3C28 7.9 22.1 4 16 4A13.9 13.9 0 0 0 2 17.9C2 29.9 12.3 42 30 54l2.4-1.6A16 16 0 0 1 46 28z"
  fill="#f27e7c"></path>
  <path data-name="opacity" d="M25 47C3 27.9 8.4 5.2 16.8 4H16A13.9 13.9 0 0 0 2 17.9C2 29.9 12.3 42 30 54l2.4-1.6a15.9 15.9 0 0 1 3.8-21C30 32.9 25 37.9 25 47z"
  fill="#000064" opacity=".15"></path>
  <path data-name="stroke" d="M54.4 30.4A25.4 25.4 0 0 0 58 17.9 13.9 13.9 0 0 0 44 4c-6.1 0-12 3.9-14 9.3C28 7.9 22.1 4 16 4A13.9 13.9 0 0 0 2 17.9C2 29.9 12.3 42 30 54l2.4-1.6"
  fill="none" stroke="#2e4369" stroke-linecap="round" stroke-linejoin="round"
  stroke-width="2"></path>
  <circle data-name="stroke" cx="46" cy="44" r="16" fill="none" stroke="#2e4369"
  stroke-linecap="round" stroke-linejoin="round" stroke-width="2"></circle>
  <path data-name="stroke" fill="none" stroke="#2e4369" stroke-linecap="round"
  stroke-linejoin="round" stroke-width="2" d="M46 36v16m-8-8h16"></path>
</svg>