<svg xmlns="http://www.w3.org/2000/svg" viewBox="0 0 64 64" aria-labelledby="title"
aria-describedby="desc" role="img" xmlns:xlink="http://www.w3.org/1999/xlink">
  <title>LOL Emoji</title>
  <desc>A color styled icon from Orion Icon Library.</desc>
  <circle data-name="layer2"
  cx="32" cy="32" r="30" fill="#fc6"></circle>
  <path data-name="opacity" d="M60 38a36.2 36.2 0 0 1-.5 6A30 30 0 0 0 32 2l-3.8.3A36 36 0 0 1 60 38z"
  fill="#fff" opacity=".2"></path>
  <path data-name="opacity" d="M8 28A29.9 29.9 0 0 1 18.5 5.2a30 30 0 1 0 33 49.6A30 30 0 0 1 8 28z"
  fill="#000064" opacity=".15"></path>
  <path data-name="layer1" d="M14 40c2.2 7.9 9.4 14 18 14s15.8-6.1 18-14z"
  fill="#fff"></path>
  <path d="M21 46a21.4 21.4 0 0 1-1-6h-6a19.4 19.4 0 0 0 12.8 13.2 17.9 17.9 0 0 1-3.5-4.3L30 47s-5.7.1-9-1z"
  fill="#000064" data-name="opacity" opacity=".12"></path>
  <circle data-name="stroke" cx="32" cy="32" r="30" fill="none" stroke="#2e4369"
  stroke-linecap="round" stroke-linejoin="round" stroke-width="2"></circle>
  <path data-name="stroke" d="M18 27.9a4 4 0 0 1 8 0m12 0a4 4 0 0 1 8 0M14 40c2.2 7.9 9.4 14 18 14s15.8-6.1 18-14z"
  fill="none" stroke="#2e4369" stroke-linecap="round" stroke-linejoin="round"
  stroke-width="2"></path>
</svg>