<svg xmlns="http://www.w3.org/2000/svg" viewBox="0 0 64 64" aria-labelledby="title"
aria-describedby="desc" role="img" xmlns:xlink="http://www.w3.org/1999/xlink">
  <title>Man</title>
  <desc>A color styled icon from Orion Icon Library.</desc>
  <path data-name="layer3"
  d="M14 51C1.4 53 2 62 2 62h30L21.8 48.7c-1.4.9-3.8 1.7-7.8 2.3zm36 0c-4.4-.7-6.9-1.7-8.3-2.8L32 62h30s0-9-12-11z"
  fill="#78d1f4"></path>
  <path data-name="layer2" d="M46 20v-2s-.5-8-8-8-9 8-21 8v2c-2 0-3 3-3 5 0 4 1.4 7 4.4 7a15.3 15.3 0 0 0 5.6 8.9v3c0 1.3.4 3.1-2.2 4.7L32 62l9.7-13.8c-2-1.5-1.7-3.1-1.7-4.2v-3.8a18 18 0 0 0 4.8-8.3c3 0 4.2-2.9 4.2-6.9 0-2.1 0-5-3-5z"
  fill="#e8d4d4"></path>
  <path data-name="layer1" d="M46 18v-2C46 5.6 38.6 2 32 2S17 5.5 17 15.9V18c12 0 13-8 21-8s8 8 8 8z"
  fill="#a06b5f"></path>
  <path d="M22.4 30c1 4.2 5 7 7.6 8.9v3c0 1.3.4 3.1-2.2 4.7a19 19 0 0 1-6 2c2.6-1.5 2.2-3.3 2.2-4.6v-3h.1a15.3 15.3 0 0 1-5.7-9c-3 0-4.4-3-4.4-7 0-2 1-5 3-5v-4.1c0-9 6.3-12.9 12.4-13.7C25.8 4.3 23 8 23 13.9V18s-2.1 9-.6 12zM38 60H10a8.1 8.1 0 0 1 4-9C1.4 53 2 62 2 62h60a8.5 8.5 0 0 0-.3-2z"
  fill="#000064" data-name="opacity" opacity=".15"></path>
  <path data-name="stroke" d="M41.7 48.2c-2-1.5-1.7-3.1-1.7-4.2v-4m-16 1v3c0 1.3.4 3.1-2.2 4.7"
  fill="none" stroke="#2e4369" stroke-linecap="round" stroke-linejoin="round"
  stroke-width="2"></path>
  <path data-name="stroke" d="M37.6 42a16.8 16.8 0 0 0 7.2-10.1c3 0 4.2-2.9 4.2-6.9 0-2 0-4.9-3-4.9V18m-29 0v2c-2 0-3 3-3 5 0 4 1.4 7 4.4 7a15.2 15.2 0 0 0 7.2 10M46 18v-2C46 5.6 38.6 2 32 2S17 5.5 17 15.9V18c12 0 13-8 21-8s8 8 8 8zM14 51C1.4 53 2 62 2 62h30L21.8 48.7c-1.4.9-3.8 1.7-7.8 2.3zm36 0c-4.4-.7-6.9-1.7-8.3-2.8L32 62h30s0-9-12-11z"
  fill="none" stroke="#2e4369" stroke-linecap="round" stroke-linejoin="round"
  stroke-width="2"></path>
</svg>