<svg xmlns="http://www.w3.org/2000/svg" viewBox="0 0 64 64" aria-labelledby="title"
aria-describedby="desc" role="img" xmlns:xlink="http://www.w3.org/1999/xlink">
  <title>Map Marker</title>
  <desc>A color styled icon from Orion Icon Library.</desc>
  <path data-name="layer2"
  d="M52 46H38.1a69.7 69.7 0 0 1-6.1 6.4 69.7 69.7 0 0 1-6.1-6.4H12L4 62h56z"
  fill="#fff"></path>
  <path data-name="layer1" d="M32 2a18.1 18.1 0 0 0-18.1 18.1c0 9.9 6.7 19.7 11.9 25.9a69.7 69.7 0 0 0 6.2 6.4 69.7 69.7 0 0 0 6.1-6.4C43.3 39.9 50 30.1 50 20.1A18.1 18.1 0 0 0 32 2zm0 12a6 6 0 1 1-6 6 6 6 0 0 1 6-6z"
  fill="#f26161"></path>
  <path data-name="opacity" d="M27.9 45C22.7 38.9 16 29.1 16 19.1a18.1 18.1 0 0 1 9.1-15.7 18.1 18.1 0 0 0-11.2 16.7c0 9.9 6.7 19.7 11.9 25.9a69.7 69.7 0 0 0 6.2 6.4l1.5-1.4a74.3 74.3 0 0 1-5.6-6z"
  fill="#000032" opacity=".2"></path>
  <path data-name="opacity" d="M32 52.4a69.7 69.7 0 0 1-6.1-6.4H12l-2 4a89.4 89.4 0 0 0 22 2.4z"
  fill="#000032" opacity=".2"></path>
  <path data-name="stroke" d="M32 2a18.1 18.1 0 0 0-18.1 18.1C13.9 36.4 32 52.4 32 52.4s18.1-16 18.1-32.3A18.1 18.1 0 0 0 32 2z"
  fill="none" stroke="#2e4369" stroke-linecap="round" stroke-linejoin="round"
  stroke-width="2"></path>
  <ellipse data-name="stroke" cx="32" cy="20" rx="6" ry="6" fill="none"
  stroke="#2e4369" stroke-linecap="round" stroke-linejoin="round" stroke-width="2"></ellipse>
  <path data-name="stroke" fill="none" stroke="#2e4369" stroke-linecap="round"
  stroke-linejoin="round" stroke-width="2" d="M38.1 46H52l8 16H4l8-16h13.9"></path>
</svg>