<svg xmlns="http://www.w3.org/2000/svg" viewBox="0 0 64 64" aria-labelledby="title"
aria-describedby="desc" role="img" xmlns:xlink="http://www.w3.org/1999/xlink">
  <title>Money</title>
  <desc>A color styled icon from Orion Icon Library.</desc>
  <circle data-name="layer1"
  cx="22" cy="22" r="20" fill="#fc6"></circle>
  <path data-name="opacity" d="M20 6a20 20 0 0 1 18.7 26.9A20 20 0 1 0 3.3 15.1 20 20 0 0 1 20 6z"
  fill="#fff" opacity=".25"></path>
  <path data-name="layer1" d="M42 22a20 20 0 0 1-20 20 20 20 0 1 0 20-20z"
  fill="#fc6"></path>
  <path data-name="opacity" d="M49 29a20 20 0 0 0-.9-6.1A20 20 0 0 0 42 22a20 20 0 0 1-20 20 20 20 0 0 0 .9 6.1A20 20 0 0 0 49 29z"
  fill="#000064" opacity=".15"></path>
  <path data-name="stroke" d="M42 22a20 20 0 1 1-20 20" fill="none"
  stroke="#2e4369" stroke-linecap="round" stroke-linejoin="round" stroke-width="2"></path>
  <circle data-name="stroke" cx="22" cy="22" r="20" fill="none" stroke="#2e4369"
  stroke-linecap="round" stroke-linejoin="round" stroke-width="2"></circle>
  <path data-name="stroke" d="M26.9 17a5 5 0 0 0-4.9-4.2c-2.8 0-5 1.8-5 4.6s2.5 4 5 4.6m-5 4.2a5 5 0 0 0 5 5c2.8 0 5-1.8 5-4.6s-2.5-4-5-4.6m0-9.2V10m0 24v-2.8M42 54v-2.8m-2.9-10.3A9.8 9.8 0 0 0 42 42m4.9-5a5 5 0 0 0-1.5-2.8m-8.4 12a5 5 0 0 0 5 5c2.8 0 5-1.8 5-4.6s-2.5-4-5-4.6"
  fill="none" stroke="#2e4369" stroke-linecap="round" stroke-linejoin="round"
  stroke-width="2"></path>
</svg>