<svg xmlns="http://www.w3.org/2000/svg" viewBox="0 0 64 64" aria-labelledby="title"
aria-describedby="desc" role="img" xmlns:xlink="http://www.w3.org/1999/xlink">
  <title>Money Bag Euro</title>
  <desc>A color styled icon from Orion Icon Library.</desc>
  <path data-name="layer1"
  d="M38 18s18 14 18 34a10 10 0 0 1-10 10H18A10 10 0 0 1 8 52c0-20 18-34 18-34S14 7.6 14 4s8 2 12 2c5.7 0 6.3-4 10-4s4.1 4.1 10 4.1c2.2 0-2 6-8 11.9z"
  fill="#f2d6ae"></path>
  <path data-name="opacity" d="M17 51c0-9 7-25 15-32-3.1-2.3-6.7-8.7-8.3-13.4C19.6 4.4 14 1 14 4s12 14 12 14S8 32 8 52a10 10 0 0 0 10 10h15c-10 0-16-2-16-11z"
  fill="#000064" opacity=".15"></path>
  <path data-name="stroke" d="M38 18s18 14 18 34a10 10 0 0 1-10 10H18A10 10 0 0 1 8 52c0-20 18-34 18-34S14 7.6 14 4s8 2 12 2c5.7 0 6.3-4 10-4s4.1 4.1 10 4.1c2.2 0-2 6-8 11.9z"
  fill="none" stroke="#2e4369" stroke-linecap="round" stroke-linejoin="round"
  stroke-width="2"></path>
  <path data-name="stroke" d="M26 18h13a19.2 19.2 0 0 0 13-4m-2 8a6.5 6.5 0 0 1 6 3M20 38h14m-14 6h14m4-16h-1.7A13.4 13.4 0 0 0 23 41c0 7.1 6.2 13 13.3 13H38"
  fill="none" stroke="#2e4369" stroke-linecap="round" stroke-linejoin="round"
  stroke-width="2"></path>
</svg>