<svg xmlns="http://www.w3.org/2000/svg" viewBox="0 0 64 64" aria-labelledby="title"
aria-describedby="desc" role="img" xmlns:xlink="http://www.w3.org/1999/xlink">
  <title>Mouse</title>
  <desc>A color styled icon from Orion Icon Library.</desc>
  <rect data-name="layer2"
  x="30" y="16" width="32" height="46" rx="14" ry="14" fill="#7b8baf"></rect>
  <path data-name="opacity" d="M54 58h-4a14 14 0 0 1-14-14V26a13.9 13.9 0 0 1 3.5-9.3A14 14 0 0 0 30 30v18a14 14 0 0 0 14 14h4a14 14 0 0 0 10.5-4.7 14 14 0 0 1-4.5.7z"
  fill="#000064" opacity=".14"></path>
  <path data-name="layer1" d="M50 34a4 4 0 0 1-4 4 4 4 0 0 1-4-4v-4a4 4 0 0 1 4-4 4 4 0 0 1 4 4z"
  fill="#8fa9d8"></path>
  <path data-name="opacity" d="M46 38a4 4 0 0 1-4 4 4 4 0 0 1-4-4v-4a4 4 0 0 1 4-4 4 4 0 0 1 4 4z"
  fill="#000064" opacity=".14"></path>
  <rect data-name="stroke" x="30" y="16" width="32" height="46" rx="14"
  ry="14" fill="none" stroke="#2e4369" stroke-linecap="round" stroke-linejoin="round"
  stroke-width="2"></rect>
  <path data-name="stroke" d="M50 34a4 4 0 0 1-4 4 4 4 0 0 1-4-4v-4a4 4 0 0 1 4-4 4 4 0 0 1 4 4zm-20 0h12m8 0h12M2 4v19a9 9 0 0 0 9 9 9 9 0 0 0 9-9v-8A13 13 0 0 1 33 2a13 13 0 0 1 13 13v1"
  fill="none" stroke="#2e4369" stroke-linecap="round" stroke-linejoin="round"
  stroke-width="2"></path>
</svg>