<svg xmlns="http://www.w3.org/2000/svg" viewBox="0 0 64 64" aria-labelledby="title"
aria-describedby="desc" role="img" xmlns:xlink="http://www.w3.org/1999/xlink">
  <title>New Sticker</title>
  <desc>A color styled icon from Orion Icon Library.</desc>
  <path data-name="layer2"
  d="M32 2a30 30 0 1 0 30 30" fill="#c3d6f9"></path>
  <path data-name="opacity" d="M62 32s-18.5 16.5-33 2 3-32 3-32z"
  fill="#000064" opacity=".15"></path>
  <path data-name="layer1" d="M62 32L32 2c-4 22 8 34 30 30z" fill="#fc6"></path>
  <path data-name="opacity" d="M62 32L32 2c-4 22 8 34 30 30z" fill="#fff"
  opacity=".2"></path>
  <path data-name="stroke" d="M32 2a30 30 0 1 0 30 30m-52 7V26l7.9 12h.1V25"
  fill="none" stroke="#2e4369" stroke-linecap="round" stroke-linejoin="round"
  stroke-width="2"></path>
  <path data-name="stroke" fill="none" stroke="#2e4369" stroke-linecap="round"
  stroke-linejoin="round" stroke-width="2" d="M32 26h-8v12h8m-2-6h-6m21.7-.4l2.1 6.4h.6l1.5-5.5m-14-7.3L39.4 38h.4l2.7-7.6"></path>
  <path data-name="stroke" d="M62 32L32 2c-4 22 8 34 30 30z" fill="none"
  stroke="#2e4369" stroke-linecap="round" stroke-linejoin="round" stroke-width="2"></path>
</svg>