<svg xmlns="http://www.w3.org/2000/svg" viewBox="0 0 64 64" aria-labelledby="title"
aria-describedby="desc" role="img" xmlns:xlink="http://www.w3.org/1999/xlink">
  <title>Office Phone</title>
  <desc>A color styled icon from Orion Icon Library.</desc>
  <rect data-name="layer3"
  x="4" y="10" width="18" height="52" rx="4" ry="4" fill="#8ca0c8"></rect>
  <path data-name="opacity" d="M8 58V14a4 4 0 0 1 4-4H8a4 4 0 0 0-4 4v44a4 4 0 0 0 4 4h4a4 4 0 0 1-4-4z"
  fill="#000064" opacity=".14"></path>
  <path data-name="layer3" d="M56 14H22v44a4 4 0 0 1-.6 2H56a4 4 0 0 0 4-4V18a4 4 0 0 0-4-4z"
  fill="#8ca0c8"></path>
  <path data-name="opacity" d="M18 10h-2.8a4 4 0 0 1 3.8 4v44a4 4 0 0 1-4 4h3a4 4 0 0 0 4-4V14a4 4 0 0 0-4-4z"
  fill="#fff" opacity=".25"></path>
  <path data-name="opacity" d="M27 58V14h-5v44a4 4 0 0 1-.6 2h5a4 4 0 0 0 .6-2z"
  fill="#000064" opacity=".14"></path>
  <path data-name="layer2" fill="#a0d6ef" d="M30 22h22v8H30z"></path>
  <circle data-name="layer1" cx="33" cy="37" r="1" fill="#2e4369"></circle>
  <circle data-name="layer1" cx="41" cy="37" r="1" fill="#2e4369"></circle>
  <circle data-name="layer1" cx="49" cy="37" r="1" fill="#2e4369"></circle>
  <circle data-name="layer1" cx="33" cy="45" r="1" fill="#2e4369"></circle>
  <circle data-name="layer1" cx="41" cy="45" r="1" fill="#2e4369"></circle>
  <circle data-name="layer1" cx="49" cy="45" r="1" fill="#2e4369"></circle>
  <circle data-name="layer1" cx="33" cy="53" r="1" fill="#2e4369"></circle>
  <circle data-name="layer1" cx="41" cy="53" r="1" fill="#2e4369"></circle>
  <circle data-name="layer1" cx="49" cy="53" r="1" fill="#2e4369"></circle>
  <path data-name="opacity" fill="#fff" opacity=".25" d="M52 22H40l8 8h4v-8z"></path>
  <rect data-name="stroke" x="4" y="10" width="18" height="52" rx="4"
  ry="4" fill="none" stroke="#2e4369" stroke-linecap="round" stroke-miterlimit="10"
  stroke-width="2" stroke-linejoin="round"></rect>
  <path data-name="stroke" fill="none" stroke="#2e4369" stroke-linecap="round"
  stroke-miterlimit="10" stroke-width="2" d="M10 2v8m12 50h34a4 4 0 0 0 4-4V18a4 4 0 0 0-4-4H22m27 38"
  stroke-linejoin="round"></path>
  <path data-name="stroke" fill="none" stroke="#2e4369" stroke-linecap="round"
  stroke-miterlimit="10" stroke-width="2" d="M30 22h22v8H30z" stroke-linejoin="round"></path>
  <circle data-name="stroke" cx="33" cy="37" r="1" fill="none" stroke="#2e4369"
  stroke-linecap="round" stroke-miterlimit="10" stroke-width="2" stroke-linejoin="round"></circle>
  <circle data-name="stroke" cx="41" cy="37" r="1" fill="none"
  stroke="#2e4369" stroke-linecap="round" stroke-miterlimit="10" stroke-width="2"
  stroke-linejoin="round"></circle>
  <circle data-name="stroke" cx="49" cy="37" r="1" fill="none"
  stroke="#2e4369" stroke-linecap="round" stroke-miterlimit="10" stroke-width="2"
  stroke-linejoin="round"></circle>
  <circle data-name="stroke" cx="33" cy="45" r="1" fill="none"
  stroke="#2e4369" stroke-linecap="round" stroke-miterlimit="10" stroke-width="2"
  stroke-linejoin="round"></circle>
  <circle data-name="stroke" cx="41" cy="45" r="1" fill="none"
  stroke="#2e4369" stroke-linecap="round" stroke-miterlimit="10" stroke-width="2"
  stroke-linejoin="round"></circle>
  <circle data-name="stroke" cx="49" cy="45" r="1" fill="none"
  stroke="#2e4369" stroke-linecap="round" stroke-miterlimit="10" stroke-width="2"
  stroke-linejoin="round"></circle>
  <circle data-name="stroke" cx="33" cy="53" r="1" fill="none"
  stroke="#2e4369" stroke-linecap="round" stroke-miterlimit="10" stroke-width="2"
  stroke-linejoin="round"></circle>
  <circle data-name="stroke" cx="41" cy="53" r="1" fill="none"
  stroke="#2e4369" stroke-linecap="round" stroke-miterlimit="10" stroke-width="2"
  stroke-linejoin="round"></circle>
  <circle data-name="stroke" cx="49" cy="53" r="1" fill="none"
  stroke="#2e4369" stroke-linecap="round" stroke-miterlimit="10" stroke-width="2"
  stroke-linejoin="round"></circle>
</svg>