<svg xmlns="http://www.w3.org/2000/svg" viewBox="0 0 64 64" aria-labelledby="title"
aria-describedby="desc" role="img" xmlns:xlink="http://www.w3.org/1999/xlink">
  <title>Pay by Card</title>
  <desc>A color styled icon from Orion Icon Library.</desc>
  <path data-name="layer3"
  d="M14 2a2 2 0 0 0-2 2v38a2 2 0 0 0 2 2h15.9a11.8 11.8 0 0 1 .2-4.9l-8.6-8.6a5 5 0 0 1 7-7L30 25V2z"
  fill="#78d1f4"></path>
  <path data-name="opacity" d="M30.1 39.1l-8.6-8.6a4.9 4.9 0 0 1-1.5-3.6l-.7.6a5 5 0 0 0 0 7l8.6 8.6a7.4 7.4 0 0 0-.2.9h2.1a11.8 11.8 0 0 1 .3-4.9z"
  fill="#000064" opacity=".15"></path>
  <path data-name="layer2" d="M40 4a2 2 0 0 0-2-2h-8v23l10 10z" fill="#7b8baf"></path>
  <path data-name="layer1" d="M48.7 28.7L40 20v15L30 25l-1.5-1.5a5 5 0 0 0-7 7l8.6 8.6a11.8 11.8 0 0 0-.2 4.9H22a20 20 0 0 0 3.3 11.5C28.1 60 28 61.3 28 62h24s.1-13.4.1-22c-.1-5.8-.9-8.9-3.4-11.3z"
  fill="#ffd4c7"></path>
  <path data-name="opacity" d="M29 44h-7a20 20 0 0 0 3.3 11.5C28.1 60 28 61.3 28 62h8v-9c-4-1-7-9-7-9z"
  fill="#000064" opacity=".15"></path>
  <path data-name="stroke" d="M40 20l8.8 8.7C51.2 31.1 52 34.2 52 40c0 8.6-.1 22-.1 22M22 44a20 20 0 0 0 3.3 11.5C28.1 60 28 61.3 28 62m1.8-18H14a2 2 0 0 1-2-2V4a2 2 0 0 1 2-2h24a2 2 0 0 1 2 2v31M30 2v23"
  fill="none" stroke="#2e4369" stroke-linecap="round" stroke-linejoin="round"
  stroke-width="2"></path>
  <path data-name="stroke" d="M44.1 39.1L28.4 23.5a5 5 0 0 0-7 0 5 5 0 0 0 0 7l8.6 8.6s-2.6 8 6 14.9"
  fill="none" stroke="#2e4369" stroke-linecap="round" stroke-linejoin="round"
  stroke-width="2"></path>
</svg>