<svg xmlns="http://www.w3.org/2000/svg" viewBox="0 0 64 64" aria-labelledby="title"
aria-describedby="desc" role="img" xmlns:xlink="http://www.w3.org/1999/xlink">
  <title>Percentage</title>
  <desc>A color styled icon from Orion Icon Library.</desc>
  <path data-name="layer1"
  d="M26 15.8a12 12 0 1 0-12 12 12 12 0 0 0 12-12zm-18 0a6 6 0 1 1 6 6 6 6 0 0 1-6-6zm42 20.4a12 12 0 1 0 12 12 12 12 0 0 0-12-12zm0 18a6 6 0 1 1 6-6 6 6 0 0 1-6 6zm-41.752-.88L51.447 6.506l4.41 4.069-43.2 46.814z"
  fill="#c3d6f9"></path>
  <path data-name="stroke" d="M26 15.8a12 12 0 1 0-12 12 12 12 0 0 0 12-12zm-18 0a6 6 0 1 1 6 6 6 6 0 0 1-6-6zm42 20.4a12 12 0 1 0 12 12 12 12 0 0 0-12-12zm0 18a6 6 0 1 1 6-6 6 6 0 0 1-6 6zm-41.752-.88L51.447 6.506l4.41 4.069-43.2 46.814z"
  fill="none" stroke="#2e4369" stroke-linecap="round" stroke-linejoin="round"
  stroke-width="2"></path>
</svg>