<svg xmlns="http://www.w3.org/2000/svg" viewBox="0 0 64 64" aria-labelledby="title"
aria-describedby="desc" role="img" xmlns:xlink="http://www.w3.org/1999/xlink">
  <title>Pie Chart</title>
  <desc>A color styled icon from Orion Icon Library.</desc>
  <path data-name="layer3"
  d="M36 2v26h26A26 26 0 0 0 36 2z" fill="#fc6"></path>
  <path data-name="layer2" d="M28 10a26 26 0 1 0 18.4 44.4L28 36z"
  fill="#44d88d"></path>
  <path data-name="layer1" d="M40 36l16.6 15.9A25.8 25.8 0 0 0 62 36z"
  fill="#f45d5d"></path>
  <path data-name="stroke" d="M36 2v26h26A26 26 0 0 0 36 2zm-8 8a26 26 0 1 0 18.4 44.4L28 36zm12 26l16.6 15.9A25.8 25.8 0 0 0 62 36z"
  fill="none" stroke="#2e4369" stroke-linecap="round" stroke-linejoin="round"
  stroke-width="2"></path>
</svg>