<svg xmlns="http://www.w3.org/2000/svg" viewBox="0 0 64 64" aria-labelledby="title"
aria-describedby="desc" role="img" xmlns:xlink="http://www.w3.org/1999/xlink">
  <title>Pin</title>
  <desc>A color styled icon from Orion Icon Library.</desc>
  <path data-name="layer2"
  fill="#cbd8e6" d="M24.8 35.2L2.6 61.4l26.2-22.2"></path>
  <path data-name="layer1" d="M38.8 49.2l4.3-4.2V33.7L53.7 23a5 5 0 0 0 6.3-.6l1.4-1.4L43.1 2.6 41.6 4a5 5 0 0 0-.6 6.3L30.3 20.9H19l-4.2 4.2z"
  fill="#ed4c49"></path>
  <path data-name="opacity" d="M61.4 20.9L60 22.4a5 5 0 0 1-6.3.6L43.1 33.7V45l-4.2 4.2-4.5-4.5L38 41V29.7L48.7 19a5 5 0 0 0 6.3-.6l1.9-1.9z"
  fill="#000028" opacity=".15"></path>
  <path data-name="stroke" fill="none" stroke="#2e4369" stroke-linecap="round"
  stroke-linejoin="round" stroke-width="2" d="M24.8 35.2L2.6 61.4l26.2-22.2m10 10l4.3-4.2V33.7L53.7 23a5 5 0 0 0 6.3-.6l1.4-1.4L43.1 2.6 41.6 4a5 5 0 0 0-.6 6.3L30.3 20.9H19l-4.2 4.2z"></path>
</svg>