<svg xmlns="http://www.w3.org/2000/svg" viewBox="0 0 64 64" aria-labelledby="title"
aria-describedby="desc" role="img" xmlns:xlink="http://www.w3.org/1999/xlink">
  <title>Sales Down</title>
  <desc>A color styled icon from Orion Icon Library.</desc>
  <path data-name="layer1"
  fill="#c3d6f9" d="M4 20h8v40.02H4zm16 20h8v19.99h-8zm16-6h8v26h-8zm16 14h8v12h-8z"></path>
  <path data-name="opacity" fill="#fff" opacity=".25" d="M52 48h8v12h-8z"></path>
  <path data-name="opacity" fill="#fff" opacity=".15" d="M20 40h8v19.99h-8z"></path>
  <path data-name="opacity" opacity=".15" d="M4 20h8v40H4z"></path>
  <path data-name="stroke" fill="none" stroke="#2e4369" stroke-linecap="round"
  stroke-linejoin="round" stroke-width="2" d="M52 32h8v-8"></path>
  <path data-name="stroke" fill="none" stroke="#2e4369" stroke-linecap="round"
  stroke-linejoin="round" stroke-width="2" d="M60 32L42 16l-12 6L12 4m0 56V20H4v40m24 0V40h-8v20m24 0V34h-8v26m24 0V48h-8v12M2 60h60"></path>
</svg>