<svg viewBox="0 0 64 64" xmlns="http://www.w3.org/2000/svg" aria-labelledby="title"
aria-describedby="desc" role="img" xmlns:xlink="http://www.w3.org/1999/xlink">
  <title>Search Server</title>
  <desc>A color styled icon from Orion Icon Library.</desc>
  <path fill="#8fa9d8"
  d="M38 50H4a2 2 0 0 1-2-2V4a2 2 0 0 1 2-2h48a2 2 0 0 1 2 2v46z" data-name="layer2"></path>
  <path opacity=".18" fill="#000064" d="M6 48V4a2 2 0 0 1 2-2H4a2 2 0 0 0-2 2v44a2 2 0 0 0 2 2h4a2 2 0 0 1-2-2z"
  data-name="opacity"></path>
  <circle fill="#44d88d" r="1" cy="10" cx="11" data-name="layer1"></circle>
  <circle fill="#44d88d" r="1" cy="26" cx="11" data-name="layer1"></circle>
  <circle fill="#44d88d" r="1" cy="42" cx="11" data-name="layer1"></circle>
  <path opacity=".35" fill="#fff" d="M54 38a10 10 0 1 0-16 12h16z"
  data-name="opacity"></path>
  <circle stroke-width="2" stroke-linejoin="round" stroke-linecap="round"
  stroke="#2e4369" fill="none" r="10" cy="45" cx="46" data-name="stroke"></circle>
  <path d="M53.2 52.2L62 61M37.3 50H4a2 2 0 0 1-2-2V4a2 2 0 0 1 2-2h48a2 2 0 0 1 2 2v35m-8-13H30m6.8 16H30m16-32H30"
  stroke-width="2" stroke-linejoin="round" stroke-linecap="round" stroke="#2e4369"
  fill="none" data-name="stroke"></path>
  <circle stroke-width="2" stroke-linejoin="round" stroke-linecap="round"
  stroke="#2e4369" fill="none" r="1" cy="10" cx="11" data-name="stroke"></circle>
  <circle stroke-width="2" stroke-linejoin="round" stroke-linecap="round"
  stroke="#2e4369" fill="none" r="1" cy="26" cx="11" data-name="stroke"></circle>
  <circle stroke-width="2" stroke-linejoin="round" stroke-linecap="round"
  stroke="#2e4369" fill="none" r="1" cy="42" cx="11" data-name="stroke"></circle>
  <path d="M54 18H2m52 16H2" stroke-width="2" stroke-linejoin="round"
  stroke-linecap="round" stroke="#2e4369" fill="none" data-name="stroke"></path>
</svg>