<svg xmlns="http://www.w3.org/2000/svg" viewBox="0 0 64 64" aria-labelledby="title"
aria-describedby="desc" role="img" xmlns:xlink="http://www.w3.org/1999/xlink">
  <title>Search File</title>
  <desc>A color styled icon from Orion Icon Library.</desc>
  <path data-name="layer2"
  d="M34 46a10 10 0 0 1 10-10V18H28V2H4v52h34a10 10 0 0 1-4-8z" fill="#ebf5ff"></path>
  <path data-name="layer1" fill="#fff" d="M44 18L28 2v16h16z"></path>
  <path data-name="opacity" fill="#000064" opacity=".15" d="M24 2v21h20v-5H28V2h-4z"></path>
  <circle data-name="layer1" cx="44" cy="46" r="10" fill="#fff"></circle>
  <path data-name="opacity" d="M44 36a10 10 0 0 0-8 4 10 10 0 0 1 14 14 10 10 0 0 0-6-18z"
  fill="#000064" opacity=".1"></path>
  <path data-name="opacity" d="M34 46a10 10 0 0 1 3.9-7.9A10 10 0 0 0 31 54h7a10 10 0 0 1-4-8z"
  fill="#000064" opacity=".15"></path>
  <path data-name="stroke" fill="none" stroke="#2e4369" stroke-linecap="round"
  stroke-miterlimit="10" stroke-width="2" d="M38 54H4V2h24l16 16v18" stroke-linejoin="round"></path>
  <path data-name="stroke" fill="none" stroke="#2e4369" stroke-linecap="round"
  stroke-miterlimit="10" stroke-width="2" d="M28 2v16h16" stroke-linejoin="round"></path>
  <circle data-name="stroke" cx="44" cy="46" r="10" fill="none" stroke="#2e4369"
  stroke-linecap="round" stroke-miterlimit="10" stroke-width="2" stroke-linejoin="round"></circle>
  <path data-name="stroke" fill="none" stroke="#2e4369" stroke-linecap="round"
  stroke-miterlimit="10" stroke-width="2" d="M51.1 53.1L60 62" stroke-linejoin="round"></path>
</svg>