<svg xmlns="http://www.w3.org/2000/svg" viewBox="0 0 64 64" aria-labelledby="title"
aria-describedby="desc" role="img" xmlns:xlink="http://www.w3.org/1999/xlink">
  <title>Settings</title>
  <desc>A color styled icon from Orion Icon Library.</desc>
  <path data-name="layer1"
  d="M60.2 27.264l-4.908-1.27a23.845 23.845 0 0 0-2.534-6.086l2.606-4.426a2.4 2.4 0 0 0-.371-2.915l-3.411-3.411a2.4 2.4 0 0 0-2.915-.371l-4.423 2.6a23.848 23.848 0 0 0-6.1-2.54L36.842 3.8A2.4 2.4 0 0 0 34.518 2h-4.825a2.4 2.4 0 0 0-2.323 1.8l-1.3 5.028a23.843 23.843 0 0 0-6.141 2.544L15.408 8.71a2.4 2.4 0 0 0-2.915.371l-3.412 3.412a2.4 2.4 0 0 0-.371 2.915l2.662 4.52a23.848 23.848 0 0 0-2.512 6.027L3.8 27.264A2.4 2.4 0 0 0 2 29.588v4.825a2.4 2.4 0 0 0 1.8 2.323l5.02 1.3a23.846 23.846 0 0 0 2.571 6.21l-2.6 4.423a2.4 2.4 0 0 0 .371 2.915l3.412 3.412a2.4 2.4 0 0 0 2.915.371l4.426-2.607a23.845 23.845 0 0 0 6.2 2.565L27.37 60.2a2.4 2.4 0 0 0 2.323 1.8h4.825a2.4 2.4 0 0 0 2.324-1.8l1.267-4.9a23.85 23.85 0 0 0 6.154-2.563l4.329 2.549a2.4 2.4 0 0 0 2.915-.371l3.412-3.412a2.4 2.4 0 0 0 .371-2.915l-2.549-4.329A23.845 23.845 0 0 0 55.332 38l4.869-1.26A2.4 2.4 0 0 0 62 34.413v-4.825a2.4 2.4 0 0 0-1.8-2.324zM32.1 46.035a14 14 0 1 1 14-14 14 14 0 0 1-13.994 14z"
  fill="#7b8baf"></path>
  <path data-name="opacity" d="M48.106 29.035a13.991 13.991 0 0 0-26.542-6.193 13.983 13.983 0 0 1 23.084 15.386 13.931 13.931 0 0 0 3.458-9.193zm-36.734-9.107a24.02 24.02 0 0 0-1.608 3.311l1.1-.284a23.848 23.848 0 0 1 2.512-6.027l-2.662-4.52a2.388 2.388 0 0 1-.327-1.217l-1.3 1.3a2.4 2.4 0 0 0-.371 2.915zM57.332 35a23.582 23.582 0 0 1-.88 2.71l3.749-.97A2.4 2.4 0 0 0 62 34.413v-.624zM36.518 59h-4.825a2.4 2.4 0 0 1-2.323-1.8l-1.262-4.878a23.845 23.845 0 0 1-6.2-2.565l-4.426 2.607a2.4 2.4 0 0 1-2.915-.371l-3.412-3.412a2.4 2.4 0 0 1-.371-2.915l2.6-4.423a23.846 23.846 0 0 1-2.571-6.21l-5.02-1.3A2.4 2.4 0 0 1 4 31.413v-4.2l-.2.052A2.4 2.4 0 0 0 2 29.588v4.825a2.4 2.4 0 0 0 1.8 2.323l5.02 1.3a23.846 23.846 0 0 0 2.571 6.21l-2.6 4.423a2.4 2.4 0 0 0 .371 2.915l3.412 3.412a2.4 2.4 0 0 0 2.915.371l4.426-2.607a23.845 23.845 0 0 0 6.2 2.565L27.37 60.2a2.4 2.4 0 0 0 2.323 1.8h4.825a2.4 2.4 0 0 0 2.324-1.8l.337-1.3a2.382 2.382 0 0 1-.661.1zm16.989-7.081a2.4 2.4 0 0 1-2.915.371l-4.329-2.549a23.85 23.85 0 0 1-6.154 2.559l-.674 2.605a23.93 23.93 0 0 0 4.828-2.168l4.329 2.549a2.4 2.4 0 0 0 2.915-.371l3.412-3.412a2.393 2.393 0 0 0 .7-1.7z"
  fill="#000064" opacity=".2"></path>
  <circle data-name="stroke" cx="32.106" cy="32.035" r="14" fill="none"
  stroke="#2e4369" stroke-linecap="round" stroke-miterlimit="10" stroke-width="2"
  stroke-linejoin="round"></circle>
  <path data-name="stroke" d="M60.2 27.264l-4.908-1.27a23.845 23.845 0 0 0-2.534-6.086l2.606-4.426a2.4 2.4 0 0 0-.371-2.915l-3.411-3.411a2.4 2.4 0 0 0-2.915-.371l-4.423 2.6a23.848 23.848 0 0 0-6.1-2.54L36.842 3.8A2.4 2.4 0 0 0 34.518 2h-4.825a2.4 2.4 0 0 0-2.323 1.8l-1.3 5.028a23.843 23.843 0 0 0-6.141 2.544L15.408 8.71a2.4 2.4 0 0 0-2.915.371l-3.412 3.412a2.4 2.4 0 0 0-.371 2.915l2.662 4.52a23.848 23.848 0 0 0-2.512 6.027L3.8 27.264A2.4 2.4 0 0 0 2 29.588v4.825a2.4 2.4 0 0 0 1.8 2.323l5.02 1.3a23.846 23.846 0 0 0 2.571 6.21l-2.6 4.423a2.4 2.4 0 0 0 .371 2.915l3.412 3.412a2.4 2.4 0 0 0 2.915.371l4.426-2.607a23.845 23.845 0 0 0 6.2 2.565L27.37 60.2a2.4 2.4 0 0 0 2.323 1.8h4.825a2.4 2.4 0 0 0 2.324-1.8l1.267-4.9a23.85 23.85 0 0 0 6.154-2.563l4.329 2.549a2.4 2.4 0 0 0 2.915-.371l3.412-3.412a2.4 2.4 0 0 0 .371-2.915l-2.549-4.329A23.845 23.845 0 0 0 55.332 38l4.869-1.26A2.4 2.4 0 0 0 62 34.413v-4.825a2.4 2.4 0 0 0-1.8-2.324z"
  fill="none" stroke="#2e4369" stroke-linecap="round" stroke-miterlimit="10"
  stroke-width="2" stroke-linejoin="round"></path>
</svg>