<svg xmlns="http://www.w3.org/2000/svg" viewBox="0 0 64 64" aria-labelledby="title"
aria-describedby="desc" role="img" xmlns:xlink="http://www.w3.org/1999/xlink">
  <title>Settings</title>
  <desc>A color styled icon from Orion Icon Library.</desc>
  <path data-name="layer3"
  d="M35 49.1a11.6 11.6 0 0 1 0-4.4L32 43l4-7 3.1 1.8A12.1 12.1 0 0 1 42 36V18H26V2H2v54h32.6l-2.9-5z"
  fill="#ebf5ff"></path>
  <path data-name="layer2" fill="#fff" d="M42 18L26 2v16h16z"></path>
  <path data-name="opacity" fill="#000064" opacity=".15" d="M22 2v21h20v-5H26V2h-4zm15.8 35.1l1.3.8A12.1 12.1 0 0 1 42 36v-2h-4.2zM31.7 51l3.3-1.9a11.6 11.6 0 0 1 0-4.4L32 43l1.9-3.3L31 38l-4 7 3 1.7a11.6 11.6 0 0 0 0 4.4L26.7 53l1.7 3h6.2z"></path>
  <path data-name="layer1" d="M58.6 49.1a11.7 11.7 0 0 0 0-4.3l3.1-1.8-4-6.9-3.1 1.8a12 12 0 0 0-3.7-2.1V32h-8v3.7a12 12 0 0 0-3.7 2.1L36 36l-4 7 3 1.7a11.6 11.6 0 0 0 0 4.4L31.7 51l4 6.9 3.3-1.8a12 12 0 0 0 3.8 2.2V62h8v-3.7a12.1 12.1 0 0 0 3.9-2.3l3.3 2 4-7zM46.8 52a5 5 0 1 1 5-5 5 5 0 0 1-5 5z"
  fill="#8fa9d8"></path>
  <path data-name="stroke" fill="none" stroke="#2e4369" stroke-linecap="round"
  stroke-miterlimit="10" stroke-width="2" d="M34.6 56H2V2h24l16 16v18" stroke-linejoin="round"></path>
  <path data-name="stroke" fill="none" stroke="#2e4369" stroke-linecap="round"
  stroke-miterlimit="10" stroke-width="2" d="M26 2v16h16" stroke-linejoin="round"></path>
  <circle data-name="stroke" cx="46.8" cy="47" r="5" fill="none"
  stroke="#2e4369" stroke-linecap="round" stroke-miterlimit="10" stroke-width="2"
  stroke-linejoin="round"></circle>
  <path data-name="stroke" d="M62 51l-3.4-2a11.7 11.7 0 0 0 0-4.3l3.1-1.7-4-6.9-3.1 1.8a12 12 0 0 0-3.7-2.1V32h-8v3.7a12 12 0 0 0-3.7 2.1L36 36l-4 7 3 1.7a11.6 11.6 0 0 0 0 4.4L31.7 51l4 6.9 3.3-1.8a12 12 0 0 0 3.8 2.2V62h8v-3.7a12.1 12.1 0 0 0 3.9-2.3l3.3 2z"
  fill="none" stroke="#2e4369" stroke-linecap="round" stroke-miterlimit="10"
  stroke-width="2" stroke-linejoin="round"></path>
</svg>