<svg xmlns="http://www.w3.org/2000/svg" viewBox="0 0 64 64" aria-labelledby="title"
aria-describedby="desc" role="img" xmlns:xlink="http://www.w3.org/1999/xlink">
  <title>Share</title>
  <desc>A color styled icon from Orion Icon Library.</desc>
  <circle data-name="layer1"
  cx="12" cy="32" r="10" fill="#5edc89"></circle>
  <circle data-name="layer1" cx="52" cy="12" r="10" fill="#5edc89"></circle>
  <circle data-name="layer1" cx="52" cy="52" r="10" fill="#5edc89"></circle>
  <path data-name="opacity" d="M5 27a10 10 0 0 1 .3-2.4 10 10 0 1 0 16.4 9.8A10 10 0 0 1 5 27zm47-5a10 10 0 0 0 9.7-7.6 10 10 0 0 1-16.4-9.8A10 10 0 0 0 52 22zm-7 25a10 10 0 0 1 .3-2.4 10 10 0 1 0 16.4 9.8A10 10 0 0 1 45 47z"
  fill="#000064" opacity=".14"></path>
  <path data-name="stroke" fill="none" stroke="#2e4369" stroke-linecap="round"
  stroke-miterlimit="10" stroke-width="2" d="M20.9 36.5l22.2 11m0-31l-22.2 11"
  stroke-linejoin="round"></path>
  <circle data-name="stroke" cx="12" cy="32" r="10" fill="none" stroke="#2e4369"
  stroke-linecap="round" stroke-miterlimit="10" stroke-width="2" stroke-linejoin="round"></circle>
  <circle data-name="stroke" cx="52" cy="12" r="10" fill="none"
  stroke="#2e4369" stroke-linecap="round" stroke-miterlimit="10" stroke-width="2"
  stroke-linejoin="round"></circle>
  <circle data-name="stroke" cx="52" cy="52" r="10" fill="none"
  stroke="#2e4369" stroke-linecap="round" stroke-miterlimit="10" stroke-width="2"
  stroke-linejoin="round"></circle>
</svg>