<svg xmlns="http://www.w3.org/2000/svg" viewBox="0 0 64 64" aria-labelledby="title"
aria-describedby="desc" role="img" xmlns:xlink="http://www.w3.org/1999/xlink">
  <title>Shared Folder</title>
  <desc>A color styled icon from Orion Icon Library.</desc>
  <path data-name="layer1"
  d="M2 46a2 2 0 0 0 2 2h56a2 2 0 0 0 2-2V8H24V2H2z" fill="#f8da82"></path>
  <path data-name="opacity" d="M8 45a2 2 0 0 1-2-2V2H2v44a2 2 0 0 0 2 2h56a2 2 0 0 0 2-2v-1z"
  fill="#000064" opacity=".15"></path>
  <path data-name="stroke" fill="none" stroke="#2e4369" stroke-linecap="round"
  stroke-miterlimit="10" stroke-width="2" d="M32 48v14m-16 0h32m-36 0H8m-3 0H2m60 0h-3m-3 0h-4M2 46a2 2 0 0 0 2 2h56a2 2 0 0 0 2-2V8H24V2H2z"
  stroke-linejoin="round"></path>
</svg>