<svg viewBox="0 0 64 64" xmlns="http://www.w3.org/2000/svg" aria-labelledby="title"
aria-describedby="desc" role="img" xmlns:xlink="http://www.w3.org/1999/xlink">
  <title>Sheriff Star</title>
  <desc>A color styled icon from Orion Icon Library.</desc>
  <circle fill="#fc6"
  r="4" cy="25.958" cx="5" data-name="layer2"></circle>
  <circle fill="#fc6" r="4" cy="25.958" cx="57" data-name="layer2"></circle>
  <circle fill="#fc6" r="4" cy="5.955" cx="31" data-name="layer2"></circle>
  <circle fill="#fc6" r="4" cy="56" cx="15" data-name="layer2"></circle>
  <circle fill="#fc6" r="4" cy="56" cx="47" data-name="layer2"></circle>
  <path opacity=".15" fill="#000064" d="M3 23.958a3.974 3.974 0 0 1 .359-1.641A4 4 0 1 0 8.64 27.6 3.984 3.984 0 0 1 3 23.958zm52 0a3.973 3.973 0 0 1 .359-1.64A4 4 0 1 0 60.64 27.6 3.986 3.986 0 0 1 55 23.958zM29 3.955a3.974 3.974 0 0 1 .36-1.641A4 4 0 1 0 34.64 7.6 3.985 3.985 0 0 1 29 3.955zM13 54a3.976 3.976 0 0 1 .359-1.641 4 4 0 1 0 5.281 5.281A3.985 3.985 0 0 1 13 54zm32 0a3.976 3.976 0 0 1 .359-1.641 4 4 0 1 0 5.281 5.281A3.985 3.985 0 0 1 45 54z"
  data-name="opacity"></path>
  <path d="M8.973 25.515H24.91l5.067-15.693h2.044l5.069 15.693h15.937l.512 2.443-12.687 9.159L45.723 52l-1.93 1.611L31 44.274l-12.793 9.339-1.992-1.424 4.933-15.072-12.687-9.159.512-2.443z"
  fill="#fc6" data-name="layer2"></path>
  <path opacity=".15" data-name="opacity" d="M33.461 41.452l-12.793 9.339-1.992-1.424 4.933-15.072-12.162-8.78H8.512L8 27.958l12.688 9.159-4.934 15.072 1.992 1.424 12.793-9.339 12.793 9.337L45.262 52l-.832-2.542-10.969-8.006z"
  fill="#000064"></path>
  <circle fill="#ec4744" r="4" cy="33.955" cx="31" data-name="layer1"></circle>
  <path d="M29.977 9.822L24.91 25.515H8.973m44.054 0H37.09L32.021 9.822M45.723 52l-4.871-14.883 12.687-9.159M18.207 53.613L31 44.274l12.793 9.337M8.461 27.958l12.687 9.159-4.933 15.072"
  stroke-width="2" stroke-linejoin="round" stroke-linecap="round" stroke="#2e4369"
  fill="none" data-name="stroke"></path>
  <circle stroke-width="2" stroke-linejoin="round" stroke-linecap="round"
  stroke="#2e4369" fill="none" r="4" cy="25.958" cx="5" data-name="stroke"></circle>
  <circle stroke-width="2" stroke-linejoin="round" stroke-linecap="round"
  stroke="#2e4369" fill="none" r="4" cy="33.955" cx="31" data-name="stroke"></circle>
  <circle stroke-width="2" stroke-linejoin="round" stroke-linecap="round"
  stroke="#2e4369" fill="none" r="4" cy="25.958" cx="57" data-name="stroke"></circle>
  <circle stroke-width="2" stroke-linejoin="round" stroke-linecap="round"
  stroke="#2e4369" fill="none" r="4" cy="5.955" cx="31" data-name="stroke"></circle>
  <circle stroke-width="2" stroke-linejoin="round" stroke-linecap="round"
  stroke="#2e4369" fill="none" r="4" cy="56" cx="15" data-name="stroke"></circle>
  <circle stroke-width="2" stroke-linejoin="round" stroke-linecap="round"
  stroke="#2e4369" fill="none" r="4" cy="56" cx="47" data-name="stroke"></circle>
</svg>