<svg xmlns="http://www.w3.org/2000/svg" viewBox="0 0 64 64" aria-labelledby="title"
aria-describedby="desc" role="img" xmlns:xlink="http://www.w3.org/1999/xlink">
  <title>Shipping Box</title>
  <desc>A color styled icon from Orion Icon Library.</desc>
  <path data-name="layer2"
  fill="#fc9" d="M62 15.3L32 2 2 15.3v33.4L32 62l30-13.3V15.3z"></path>
  <path data-name="layer1" fill="#e0eafc" d="M54 31.6l-12 5.3v11.3l12-5.3V31.6z"></path>
  <path data-name="opacity" fill="#fff" opacity=".25" d="M61.9 15.3L32 2 2 15.3l29.9 13.3 30-13.3z"></path>
  <path data-name="opacity" fill="#000064" opacity=".15" d="M2 15.3v33.4L32 62l-.1-33.4L2 15.3z"></path>
  <path data-name="stroke" fill="none" stroke="#2e4369" stroke-linecap="round"
  stroke-linejoin="round" stroke-width="2" d="M62 15.3L32 2 2 15.3v33.4L32 62l30-13.3V15.3z"></path>
  <path data-name="stroke" fill="none" stroke="#2e4369" stroke-linecap="round"
  stroke-linejoin="round" stroke-width="2" d="M2 15.3l30 13.3 30-13.3M18.4 8l30 13.3M32 28.6V62m22-30.4l-12 5.3v11.3l12-5.3V31.6z"></path>
</svg>