<svg xmlns="http://www.w3.org/2000/svg" viewBox="0 0 64 64" aria-labelledby="title"
aria-describedby="desc" role="img" xmlns:xlink="http://www.w3.org/1999/xlink">
  <title>Smile Emoji</title>
  <desc>A color styled icon from Orion Icon Library.</desc>
  <circle data-name="layer3"
  cx="32" cy="32" r="30" fill="#fc6"></circle>
  <path data-name="opacity" d="M60 38a36.2 36.2 0 0 1-.5 6A30 30 0 0 0 32 2l-3.8.3A36 36 0 0 1 60 38z"
  fill="#fff" opacity=".2"></path>
  <path data-name="opacity" d="M8 28A29.9 29.9 0 0 1 18.5 5.2a30 30 0 1 0 33 49.6A30 30 0 0 1 8 28z"
  fill="#000064" opacity=".15"></path>
  <circle data-name="layer1" cx="22" cy="26" r="2" fill="#64738f"></circle>
  <circle data-name="layer1" cx="42" cy="26" r="2" fill="#64738f"></circle>
  <path data-name="layer2" d="M14 40c2.2 7.9 9.4 14 18 14s15.8-6.1 18-14z"
  fill="#fff"></path>
  <path data-name="layer1" d="M16 44a52 52 0 0 0 15 2 78.9 78.9 0 0 0 17-2s-3 10-16 10a17.2 17.2 0 0 1-16-10z"
  fill="#64738f"></path>
  <circle data-name="stroke" cx="32" cy="32" r="30" fill="none" stroke="#2e4369"
  stroke-linecap="round" stroke-linejoin="round" stroke-width="2"></circle>
  <circle data-name="stroke" cx="22" cy="26" r="2" fill="none"
  stroke="#2e4369" stroke-linecap="round" stroke-linejoin="round" stroke-width="2"></circle>
  <circle data-name="stroke" cx="42" cy="26" r="2" fill="none"
  stroke="#2e4369" stroke-linecap="round" stroke-linejoin="round" stroke-width="2"></circle>
  <path data-name="stroke" d="M14 40c2.2 7.9 9.4 14 18 14s15.8-6.1 18-14z"
  fill="none" stroke="#2e4369" stroke-linecap="round" stroke-linejoin="round"
  stroke-width="2"></path>
</svg>