<svg xmlns="http://www.w3.org/2000/svg" viewBox="0 0 64 64" aria-labelledby="title"
aria-describedby="desc" role="img" xmlns:xlink="http://www.w3.org/1999/xlink">
  <title>Social</title>
  <desc>A color styled icon from Orion Icon Library.</desc>
  <circle data-name="layer3"
  cx="32" cy="39" r="7" fill="#3dd1fe"></circle>
  <path data-name="layer3" d="M32 46a12.1 12.1 0 0 0-12 12v2h24v-2a12.1 12.1 0 0 0-12-12z"
  fill="#3dd1fe"></path>
  <circle data-name="layer2" cx="52" cy="10" r="6" fill="#a5d0ec"></circle>
  <path data-name="layer2" d="M62 28c0-7.5-4.5-12-10-12s-10 4.5-10 12z"
  fill="#a5d0ec"></path>
  <circle data-name="layer1" cx="12" cy="10" r="6" fill="#78d1f4"></circle>
  <path data-name="layer1" d="M22 28c0-7.5-4.5-12-10-12S2 20.5 2 28z"
  fill="#78d1f4"></path>
  <g data-name="opacity" opacity=".15">
    <path d="M34 32.3a7 7 0 1 0 0 13.4 7 7 0 0 1 0-13.4z" fill="#000064"></path>
    <path d="M20 58v2h4v-2a12 12 0 0 1 10-11.8l-2-.2a12.1 12.1 0 0 0-12 12zm30-48a6 6 0 0 1 4-5.7A6 6 0 1 0 52 16c-5.5 0-10 4-10 12h4c0-7 3.4-10.9 8-11.8l-2-.2a6 6 0 0 0 2-.3 6 6 0 0 1-4-5.7zm-36 5.6a6 6 0 0 1 0-11.3A6 6 0 1 0 12 16C6.5 16 2 20 2 28h4c0-7 3.4-10.9 8-11.8l-2-.2a6 6 0 0 0 2-.4z"
    fill="#000064"></path>
  </g>
  <circle data-name="stroke" cx="32" cy="39" r="7" fill="none" stroke="#2e4369"
  stroke-linecap="round" stroke-linejoin="round" stroke-width="2"></circle>
  <circle data-name="stroke" cx="32" cy="46" fill="none" stroke="#2e4369"
  stroke-linecap="round" stroke-linejoin="round" stroke-width="2"></circle>
  <path data-name="stroke" d="M32 46a12.1 12.1 0 0 0-12 12v2h24v-2a12.1 12.1 0 0 0-12-12z"
  fill="none" stroke="#2e4369" stroke-linecap="round" stroke-linejoin="round"
  stroke-width="2"></path>
  <circle data-name="stroke" cx="52" cy="10" r="6" fill="none" stroke="#2e4369"
  stroke-linecap="round" stroke-linejoin="round" stroke-width="2"></circle>
  <path data-name="stroke" d="M62 28c0-7.5-4.5-12-10-12s-10 4.5-10 12z"
  fill="none" stroke="#2e4369" stroke-linecap="round" stroke-linejoin="round"
  stroke-width="2"></path>
  <circle data-name="stroke" cx="12" cy="10" r="6" fill="none" stroke="#2e4369"
  stroke-linecap="round" stroke-linejoin="round" stroke-width="2"></circle>
  <path data-name="stroke" d="M22 28c0-7.5-4.5-12-10-12S2 20.5 2 28zm-10 6l8 8m32-8l-8 8M24 14h16"
  fill="none" stroke="#2e4369" stroke-linecap="round" stroke-linejoin="round"
  stroke-width="2"></path>
</svg>