<svg xmlns="http://www.w3.org/2000/svg" viewBox="0 0 64 64" aria-labelledby="title"
aria-describedby="desc" role="img" xmlns:xlink="http://www.w3.org/1999/xlink">
  <title>Student</title>
  <desc>A color styled icon from Orion Icon Library.</desc>
  <path data-name="layer1"
  fill="#64738f" d="M60 5.9l-28-4-28 4 14 3v7l14 2 14-2v-7l14-3z"></path>
  <path data-name="layer2" d="M32 62.1l16-11.2c-9.1-2-9-5.1-9-7v-2.7h-.3a17.3 17.3 0 0 0 6.1-9.4c3 0 3.7-4.3 3.7-5.2S49 22 46 21.9v-6l-14 2-14-2v6c-3 0-3 4.1-3 5s.4 5 3.4 5a15.3 15.3 0 0 0 5.9 9.1H24v2.9c0 1.8.5 4.5-8 6.6z"
  fill="#e8d4d4"></path>
  <path data-name="layer1" d="M32 61.9h30s0-8.4-12.4-10.8l-1.6-.2zm-30 0h30L16 50.4l-2.4.5C2 53.1 2 61.9 2 61.9z"
  fill="#64738f"></path>
  <path data-name="opacity" d="M16 55.9c3-1 9-6 10-10 6 3 8 0 10-4-14 3-14-13-14-17s1-12 1-12l9 1.8 14-1.8v-4l-14 2-14-2v13c-3 0-3 4.1-3 5s.4 5 3.4 5a15.3 15.3 0 0 0 5.9 9.1H24v2.9c0 1.8.5 4.5-7.9 6.5H16l-2.4.5C2 53.1 2 61.9 2 61.9h7.1c.6-3.3 4.2-5.1 6.9-6z"
  fill="#000064" opacity=".15"></path>
  <path data-name="stroke" d="M24 41v2.9c0 2 .6 4.9-10.4 7S2 61.9 2 61.9h60s0-8.6-12.4-11c-10.7-2.1-10.6-5-10.6-7v-2.7"
  fill="none" stroke="#2e4369" stroke-linecap="round" stroke-linejoin="round"
  stroke-width="2"></path>
  <path data-name="stroke" fill="none" stroke="#2e4369" stroke-linecap="round"
  stroke-linejoin="round" stroke-width="2" d="M16 50.4l16 11.5 16-11.3m-10.4-8.4a17.2 17.2 0 0 0 7.2-10.3c3 0 3.7-4.3 3.7-5.3S49 22 46 21.9v-6m-28 0v6c-3 0-3 4.1-3 5s.4 5 3.4 5a15.9 15.9 0 0 0 7.2 10.3M32 11.9l-28-6 28-4 28 4-28 6z"></path>
  <path data-name="stroke" fill="none" stroke="#2e4369" stroke-linecap="round"
  stroke-linejoin="round" stroke-width="2" d="M18 8.9v7l14 2 14-2v-7M6 6.3v23.6"></path>
</svg>