<svg xmlns="http://www.w3.org/2000/svg" viewBox="0 0 64 64" aria-labelledby="title"
aria-describedby="desc" role="img" xmlns:xlink="http://www.w3.org/1999/xlink">
  <title>Telephone Operator</title>
  <desc>A color styled icon from Orion Icon Library.</desc>
  <path data-name="layer4"
  d="M37 10c-8 0-8 8-20 8v8a19.6 19.6 0 0 0 7 15.3V44c0 1.3.2 3-2.6 4.6l10 12.4 10.2-12.5C38.9 47 39 45.3 39 44v-5c3 0 7-3 7-7V17s-1.5-7-9-7z"
  fill="#ffe1e1"></path>
  <path data-name="layer2" d="M39 39a3 3 0 0 0-3-3h-2a3 3 0 0 0-3 3 3 3 0 0 0 3 3h2a3 3 0 0 0 3-3z"
  fill="#536897"></path>
  <path data-name="layer3" d="M51 20h-5v12a5.9 5.9 0 0 1-.1.9H51a3.3 3.3 0 0 0 3-3V23a3.3 3.3 0 0 0-3-3zM9 23v7a3.3 3.3 0 0 0 3 3h6.2a20.7 20.7 0 0 1-1.2-7v-6h-5a3.3 3.3 0 0 0-3 3z"
  fill="#8ca0c8"></path>
  <path data-name="opacity" d="M51 29h-5v3a5.9 5.9 0 0 1-.1.9H51a3.3 3.3 0 0 0 3-3V26a3.3 3.3 0 0 1-3 3zM9 26v4a3.3 3.3 0 0 0 3 3h6.2a20.8 20.8 0 0 1-1-4H12a3.3 3.3 0 0 1-3-3z"
  fill="#000064" opacity=".14"></path>
  <path data-name="layer2" d="M31.4 2C24.8 2 17 5.6 17 16v2c12 0 12-8 20-8s9 7 9 7v-1C46 5.6 38 2 31.4 2z"
  fill="#536897"></path>
  <path data-name="layer1" d="M49.4 51a25.1 25.1 0 0 1-7.8-2.5L31.4 61l-10-12.4a26 26 0 0 1-8 2.4A14.2 14.2 0 0 0 2 62h59a14.6 14.6 0 0 0-11.6-11z"
  fill="#dbf1ff"></path>
  <path data-name="opacity" d="M39 44v-5h-6a2.7 2.7 0 0 0-3 3c-10-3-8-16-8-20 0-1-.1-2.6-.1-4.5-.1-5.9.7-14.6 8-15.4C23.6 2.6 17 6.4 17 16v10a19.6 19.6 0 0 0 7 15.3V44c0 1.3.2 3-2.6 4.6a26 26 0 0 1-8 2.4A14.2 14.2 0 0 0 2 62h8.1s.9-7 5.9-8a23.3 23.3 0 0 0 7.3-3.1A31 31 0 0 0 26 49a12.1 12.1 0 0 0 5 1c4 0 6.7-3.1 8-5.2V44z"
  fill="#000064" opacity=".14"></path>
  <path data-name="stroke" d="M46 33h5a3.3 3.3 0 0 0 3-3v-7a3.3 3.3 0 0 0-3-3h-5m-29 0h-5a3.3 3.3 0 0 0-3 3v7a3.3 3.3 0 0 0 3 3h6.2"
  fill="none" stroke="#2e4369" stroke-linecap="round" stroke-miterlimit="10"
  stroke-width="2" stroke-linejoin="round"></path>
  <path data-name="stroke" d="M25.4 42.3C20.7 39.4 17 33.2 17 26V16C17 5.6 24.8 2 31.4 2 38 2 46 5.6 46 16v16c0 4-4 7-7 7"
  fill="none" stroke="#2e4369" stroke-linecap="round" stroke-miterlimit="10"
  stroke-width="2" stroke-linejoin="round"></path>
  <path data-name="stroke" d="M24 41.3V44c0 2 .4 5-10.6 7A14.2 14.2 0 0 0 2 62h59a14.6 14.6 0 0 0-11.6-11C38.7 49 39 46 39 44v-5"
  fill="none" stroke="#2e4369" stroke-linecap="round" stroke-miterlimit="10"
  stroke-width="2" stroke-linejoin="round"></path>
  <path data-name="stroke" d="M39 39a3 3 0 0 0-3-3h-2a3 3 0 0 0-3 3 3 3 0 0 0 3 3h2a3 3 0 0 0 3-3zm-17.6 9.5l10 12.5 10.2-12.5M17 18c12 0 12-8 20-8s9 7 9 7"
  fill="none" stroke="#2e4369" stroke-linecap="round" stroke-miterlimit="10"
  stroke-width="2" stroke-linejoin="round"></path>
</svg>