<svg xmlns="http://www.w3.org/2000/svg" viewBox="0 0 64 64" aria-labelledby="title"
aria-describedby="desc" role="img" xmlns:xlink="http://www.w3.org/1999/xlink">
  <title>Ticket</title>
  <desc>A color styled icon from Orion Icon Library.</desc>
  <path data-name="layer2"
  d="M55 18.7A6.9 6.9 0 0 1 45.3 9l-7-7L2 38.3l7 7a6.9 6.9 0 0 1 9.7 9.7l7 7L62 25.7z"
  fill="#efbc8b"></path>
  <path data-name="layer1" d="M30.6 46a3 3 0 0 1-4.2 0L18 37.6a3 3 0 0 1 0-4.2L33.4 18a3 3 0 0 1 4.2 0l8.4 8.4a3 3 0 0 1 0 4.2z"
  fill="#f9e7d5"></path>
  <path data-name="stroke" d="M55 18.7A6.9 6.9 0 0 1 45.3 9l-7-7L2 38.3l7 7a6.9 6.9 0 0 1 9.7 9.7l7 7L62 25.7z"
  fill="none" stroke="#2e4369" stroke-linecap="round" stroke-linejoin="round"
  stroke-width="2"></path>
  <path data-name="stroke" d="M30.6 46a3 3 0 0 1-4.2 0L18 37.6a3 3 0 0 1 0-4.2L33.4 18a3 3 0 0 1 4.2 0l8.4 8.4a3 3 0 0 1 0 4.2z"
  fill="none" stroke="#2e4369" stroke-linecap="round" stroke-linejoin="round"
  stroke-width="2"></path>
</svg>