<svg xmlns="http://www.w3.org/2000/svg" viewBox="0 0 64 64" aria-labelledby="title"
aria-describedby="desc" role="img" xmlns:xlink="http://www.w3.org/1999/xlink">
  <title>Vault</title>
  <desc>A color styled icon from Orion Icon Library.</desc>
  <rect data-name="layer2"
  x="2" y="2" width="60" height="60" rx="3" ry="3" fill="#8fa9d8"></rect>
  <circle data-name="layer1" cx="34" cy="32" r="8" fill="#efbc8b"></circle>
  <path data-name="opacity" d="M26 32a8 8 0 0 1 .7-3.3 8 8 0 1 0 10.6 10.6A8 8 0 0 1 26 32z"
  fill="#000064" opacity=".15"></path>
  <path data-name="layer1" fill="#efbc8b" d="M8 16h4v8H8zm0 24h4v8H8z"></path>
  <path data-name="opacity" fill="#000064" opacity=".15" d="M10 12H5v46h46v-4H10v-6H8v-8h2V24H8v-8h2v-4z"></path>
  <rect data-name="stroke" x="2" y="2" width="60" height="60" rx="3"
  ry="3" fill="none" stroke="#2e4369" stroke-linecap="round" stroke-linejoin="round"
  stroke-width="2"></rect>
  <path data-name="stroke" fill="none" stroke="#2e4369" stroke-linecap="round"
  stroke-linejoin="round" stroke-width="2" d="M10 16v-6h44v44H10v-6m0-8V24"></path>
  <circle data-name="stroke" cx="34" cy="32" r="8" fill="none" stroke="#2e4369"
  stroke-linecap="round" stroke-linejoin="round" stroke-width="2"></circle>
  <path data-name="stroke" fill="none" stroke="#2e4369" stroke-linecap="round"
  stroke-linejoin="round" stroke-width="2" d="M34 20v4m0 16v4M22 32h4m16 0h4m-20.5-8.5l2.8 2.8m11.4 11.4l2.8 2.8m-17 0l2.8-2.8m11.4-11.4l2.8-2.8M8 16h4v8H8zm0 24h4v8H8z"></path>
  <circle data-name="stroke" cx="34" cy="32" r="1" fill="none" stroke="#2e4369"
  stroke-linecap="round" stroke-linejoin="round" stroke-width="2"></circle>
</svg>