<svg xmlns="http://www.w3.org/2000/svg" viewBox="0 0 64 64" aria-labelledby="title"
aria-describedby="desc" role="img" xmlns:xlink="http://www.w3.org/1999/xlink">
  <title>Watch</title>
  <desc>A color styled icon from Orion Icon Library.</desc>
  <path data-name="layer2"
  d="M32 11a20.957 20.957 0 0 1 16.2 7.635L43 2H21l-5.2 16.635A20.957 20.957 0 0 1 32 11z"
  fill="#00d2f6"></path>
  <path data-name="opacity" fill="#fff" opacity=".2" d="M21 2l-.938 3h23.875L43 2H21z"></path>
  <circle data-name="layer3" cx="32" cy="32" r="21" fill="#e1f4f3"></circle>
  <path data-name="opacity" d="M34 51a20.978 20.978 0 0 1-15.8-34.8 20.982 20.982 0 1 0 29.6 29.6A20.9 20.9 0 0 1 34 51z"
  fill="#000064" opacity=".14"></path>
  <path data-name="opacity" d="M32 13a18.953 18.953 0 0 0-14.843 7.157 18.986 18.986 0 0 1 26.686 26.686A18.99 18.99 0 0 0 32 13z"
  fill="#fff" opacity=".5"></path>
  <path data-name="opacity" d="M32.163 38.79l-7.449-6.259a2 2 0 0 1 2.572-3.062l4.625 3.886 7.666-7.76a2 2 0 0 1 2.846 2.811z"
  fill="#000064" opacity=".15"></path>
  <path data-name="layer2" d="M32 53a20.955 20.955 0 0 1-16.179-7.614L21 61.958h22l5.179-16.572A20.955 20.955 0 0 1 32 53z"
  fill="#00d2f6"></path>
  <path data-name="opacity" d="M47.474 47.642l.7-2.256a21 21 0 0 1-32.357 0l2.525 8.08a20.99 20.99 0 0 0 29.127-5.825z"
  fill="#000064" opacity=".16"></path>
  <path data-name="layer1" d="M56 28h-3.391a20.647 20.647 0 0 1 0 8H56a1 1 0 0 0 1-1v-6a1 1 0 0 0-1-1z"
  fill="#6e7da9"></path>
  <path data-name="stroke" fill="none" stroke="#2e4369" stroke-linecap="round"
  stroke-miterlimit="10" stroke-width="2" d="M15.802 18.635L21 2h22l5.198 16.634M15.823 45.391L21 61.958h22l5.177-16.567M52.619 28H56a1 1 0 0 1 1 1v6a1 1 0 0 1-1 1h-3.381M24 27l8.037 7.073L43 23"
  stroke-linejoin="round"></path>
  <circle data-name="stroke" cx="32" cy="32" r="21" fill="none" stroke="#2e4369"
  stroke-linecap="round" stroke-miterlimit="10" stroke-width="2" stroke-linejoin="round"></circle>
</svg>