<svg xmlns="http://www.w3.org/2000/svg" viewBox="0 0 64 64" aria-labelledby="title"
aria-describedby="desc" role="img" xmlns:xlink="http://www.w3.org/1999/xlink">
  <title>Woman</title>
  <desc>A color styled icon from Orion Icon Library.</desc>
  <path data-name="layer3"
  d="M62 62s-2.5-10.1-12.4-11l-4.1-.6L36 62zM13.6 51C3.6 51.8 2 62 2 62h26l-9.8-11.7a34.1 34.1 0 0 1-4.6.7z"
  fill="#f27e7c"></path>
  <path data-name="layer2" d="M26 3.8c.1 3 .3 16.2-8 16.2v6c0 6.7 2.9 12.6 7.2 15.7l-.2.3v2c0 1.7 0 4.8-6.8 6.3L28 62h8l9.5-11.6C39 48.8 39 45.7 39 44v-2l-.3-.2C43 38.7 46 32.8 46 26v-8C28.4 18 26.3 6.6 26 3.8z"
  fill="#e8d4d4"></path>
  <path data-name="layer1" d="M32 2a15.7 15.7 0 0 0-6 1.2v.6C26.3 6.6 28.4 18 46 18v-1.6C46 6 38.6 2 32 2z"
  fill="#e5bc55"></path>
  <path data-name="layer1" d="M26 3.8v-.6c-4.4 1.8-8 6-8 13.2V20c8.3 0 8.2-13.2 8-16.2zM25 44v-2l.2-.3c-4.3-3.1-7.2-8.9-7.2-15.6-.1 1.2-1.2 16.1-5 19.9 4 4 4.9 4.4 4.9 4.4h.4v-.2C25 48.8 25 45.7 25 44zm13.7-2.2l.3.2v2c0 1.6 0 4.6 5.9 6.2.3 0 2.3-.5 6.1-4.2-3.8-3.8-4.9-18.7-5-19.9 0 6.8-3 12.6-7.3 15.7z"
  fill="#e5bc55"></path>
  <path data-name="opacity" d="M30 42c-5-2-5-9-5-24a41.5 41.5 0 0 1 .8-9l3.6-6.8a15.1 15.1 0 0 0-3.4 1c-4.4 1.8-8 6-8 13.2V26s-1 16-5 20c3.8 3.8 4.8 4.4 4.9 4.4l-4.3.6C3.6 51.8 2 62 2 62h7.1c.6-6.2 6.3-8 13.9-9s12-10 12-10a17.5 17.5 0 0 1-5-1z"
  fill="#000064" opacity=".15"></path>
  <path data-name="stroke" d="M32 2c-6.6 0-14 4-14 14.4V26c0 7.2 3.3 13.4 8 16.3m12 0c4.7-2.9 8-9.1 8-16.3v-9.6C46 6 38.6 2 32 2"
  fill="none" stroke="#2e4369" stroke-linecap="round" stroke-linejoin="round"
  stroke-width="2"></path>
  <path data-name="stroke" d="M46 18C26 18 26 3.2 26 3.2S27.4 20 18 20m27.5 30.4C39 48.8 39 45.7 39 44v-2M28 62h8M25 42v2c0 1.7 0 4.8-6.8 6.3M18 26s-1 16-5 20c4 4 4.9 4.4 4.9 4.4"
  fill="none" stroke="#2e4369" stroke-linecap="round" stroke-linejoin="round"
  stroke-width="2"></path>
  <path data-name="stroke" d="M46 26s1 16 5 20c-4 4-6.1 4.2-6.1 4.2M62 62s-2.5-10.1-12.4-11l-4.1-.6L36 62zM13.6 51C3.6 51.8 2 62 2 62h26l-9.8-11.7a34.1 34.1 0 0 1-4.6.7z"
  fill="none" stroke="#2e4369" stroke-linecap="round" stroke-linejoin="round"
  stroke-width="2"></path>
</svg>