<svg width="123" height="39" viewBox="0 0 123 39" fill="none" xmlns="http://www.w3.org/2000/svg">
<path d="M3.21484 1.5625H8.17578L15.4805 22.4414L22.7852 1.5625H27.7461L17.4727 30H13.4883L3.21484 1.5625ZM0.539062 1.5625H5.48047L6.37891 21.9141V30H0.539062V1.5625ZM25.4805 1.5625H30.4414V30H24.582V21.9141L25.4805 1.5625ZM46.6328 25.2344V15.8203C46.6328 15.1432 46.5221 14.5638 46.3008 14.082C46.0794 13.5872 45.7344 13.2031 45.2656 12.9297C44.8099 12.6562 44.2174 12.5195 43.4883 12.5195C42.8633 12.5195 42.3229 12.6302 41.8672 12.8516C41.4115 13.0599 41.0599 13.3659 40.8125 13.7695C40.5651 14.1602 40.4414 14.6224 40.4414 15.1562H34.8164C34.8164 14.2578 35.0247 13.4049 35.4414 12.5977C35.8581 11.7904 36.4635 11.0807 37.2578 10.4688C38.0521 9.84375 38.9961 9.35547 40.0898 9.00391C41.1966 8.65234 42.4336 8.47656 43.8008 8.47656C45.4414 8.47656 46.8997 8.75 48.1758 9.29688C49.4518 9.84375 50.4544 10.6641 51.1836 11.7578C51.9258 12.8516 52.2969 14.2188 52.2969 15.8594V24.9023C52.2969 26.0612 52.3685 27.0117 52.5117 27.7539C52.6549 28.4831 52.8633 29.1211 53.1367 29.668V30H47.4531C47.1797 29.4271 46.9714 28.7109 46.8281 27.8516C46.6979 26.9792 46.6328 26.1068 46.6328 25.2344ZM47.375 17.1289L47.4141 20.3125H44.2695C43.5273 20.3125 42.8828 20.3971 42.3359 20.5664C41.7891 20.7357 41.3398 20.9766 40.9883 21.2891C40.6367 21.5885 40.3763 21.9401 40.207 22.3438C40.0508 22.7474 39.9727 23.1901 39.9727 23.6719C39.9727 24.1536 40.0833 24.5898 40.3047 24.9805C40.526 25.3581 40.8451 25.6576 41.2617 25.8789C41.6784 26.0872 42.1667 26.1914 42.7266 26.1914C43.5729 26.1914 44.3086 26.0221 44.9336 25.6836C45.5586 25.3451 46.0404 24.9284 46.3789 24.4336C46.7305 23.9388 46.9128 23.4701 46.9258 23.0273L48.4102 25.4102C48.2018 25.944 47.9154 26.4974 47.5508 27.0703C47.1992 27.6432 46.75 28.1836 46.2031 28.6914C45.6562 29.1862 44.9987 29.5964 44.2305 29.9219C43.4622 30.2344 42.5508 30.3906 41.4961 30.3906C40.1549 30.3906 38.9375 30.1237 37.8438 29.5898C36.763 29.043 35.9036 28.2943 35.2656 27.3438C34.6406 26.3802 34.3281 25.2865 34.3281 24.0625C34.3281 22.9557 34.5365 21.9727 34.9531 21.1133C35.3698 20.2539 35.9818 19.5312 36.7891 18.9453C37.6094 18.3464 38.6315 17.8971 39.8555 17.5977C41.0794 17.2852 42.4987 17.1289 44.1133 17.1289H47.375ZM62.2578 13.4766V30H56.6328V8.86719H61.9258L62.2578 13.4766ZM68.625 8.73047L68.5273 13.9453C68.2539 13.9062 67.9219 13.8737 67.5312 13.8477C67.1536 13.8086 66.8086 13.7891 66.4961 13.7891C65.7018 13.7891 65.0117 13.8932 64.4258 14.1016C63.8529 14.2969 63.3711 14.5898 62.9805 14.9805C62.6029 15.3711 62.3164 15.8464 62.1211 16.4062C61.9388 16.9661 61.8346 17.6042 61.8086 18.3203L60.6758 17.9688C60.6758 16.6016 60.8125 15.3451 61.0859 14.1992C61.3594 13.0404 61.7565 12.0312 62.2773 11.1719C62.8112 10.3125 63.4622 9.64844 64.2305 9.17969C64.9987 8.71094 65.8776 8.47656 66.8672 8.47656C67.1797 8.47656 67.4987 8.5026 67.8242 8.55469C68.1497 8.59375 68.4167 8.65234 68.625 8.73047ZM84.2695 8.86719H89.3672V29.2969C89.3672 31.224 88.9375 32.8581 88.0781 34.1992C87.2318 35.5534 86.0469 36.5755 84.5234 37.2656C83 37.9688 81.2292 38.3203 79.2109 38.3203C78.3255 38.3203 77.388 38.2031 76.3984 37.9688C75.4219 37.7344 74.4844 37.3698 73.5859 36.875C72.7005 36.3802 71.9583 35.7552 71.3594 35L73.8398 31.6797C74.4909 32.4349 75.2461 33.0208 76.1055 33.4375C76.9648 33.8672 77.9154 34.082 78.957 34.082C79.9727 34.082 80.832 33.8932 81.5352 33.5156C82.2383 33.151 82.7786 32.6107 83.1562 31.8945C83.5339 31.1914 83.7227 30.3385 83.7227 29.3359V13.75L84.2695 8.86719ZM70.0508 19.6875V19.2773C70.0508 17.6628 70.2461 16.1979 70.6367 14.8828C71.0404 13.5547 71.6068 12.4154 72.3359 11.4648C73.0781 10.5143 73.9766 9.77865 75.0312 9.25781C76.0859 8.73698 77.2773 8.47656 78.6055 8.47656C80.0117 8.47656 81.1901 8.73698 82.1406 9.25781C83.0911 9.77865 83.8724 10.5208 84.4844 11.4844C85.0964 12.4349 85.5716 13.5612 85.9102 14.8633C86.2617 16.1523 86.5352 17.5651 86.7305 19.1016V20C86.5352 21.4714 86.2422 22.8385 85.8516 24.1016C85.4609 25.3646 84.9466 26.4714 84.3086 27.4219C83.6706 28.3594 82.8763 29.0885 81.9258 29.6094C80.9883 30.1302 79.8685 30.3906 78.5664 30.3906C77.2643 30.3906 76.0859 30.1237 75.0312 29.5898C73.9896 29.056 73.0977 28.3073 72.3555 27.3438C71.6133 26.3802 71.0404 25.2474 70.6367 23.9453C70.2461 22.6432 70.0508 21.224 70.0508 19.6875ZM75.6758 19.2773V19.6875C75.6758 20.5599 75.7604 21.3737 75.9297 22.1289C76.099 22.8841 76.3594 23.5547 76.7109 24.1406C77.0755 24.7135 77.5247 25.1628 78.0586 25.4883C78.6055 25.8008 79.25 25.957 79.9922 25.957C81.0208 25.957 81.8607 25.7422 82.5117 25.3125C83.1628 24.8698 83.651 24.2643 83.9766 23.4961C84.3021 22.7279 84.4909 21.8424 84.543 20.8398V18.2812C84.5169 17.4609 84.4062 16.7253 84.2109 16.0742C84.0156 15.4102 83.7422 14.8438 83.3906 14.375C83.0391 13.9062 82.5833 13.5417 82.0234 13.2812C81.4635 13.0208 80.7995 12.8906 80.0312 12.8906C79.2891 12.8906 78.6445 13.0599 78.0977 13.3984C77.5638 13.724 77.1146 14.1732 76.75 14.7461C76.3984 15.319 76.1315 15.9961 75.9492 16.7773C75.7669 17.5456 75.6758 18.3789 75.6758 19.2773ZM99.6797 8.86719V30H94.0352V8.86719H99.6797ZM93.6836 3.35938C93.6836 2.53906 93.9701 1.86198 94.543 1.32812C95.1159 0.794271 95.8841 0.527344 96.8477 0.527344C97.7982 0.527344 98.5599 0.794271 99.1328 1.32812C99.7188 1.86198 100.012 2.53906 100.012 3.35938C100.012 4.17969 99.7188 4.85677 99.1328 5.39062C98.5599 5.92448 97.7982 6.19141 96.8477 6.19141C95.8841 6.19141 95.1159 5.92448 94.543 5.39062C93.9701 4.85677 93.6836 4.17969 93.6836 3.35938ZM109.836 13.3789V30H104.211V8.86719H109.484L109.836 13.3789ZM109.016 18.6914H107.492C107.492 17.1289 107.694 15.7227 108.098 14.4727C108.501 13.2096 109.068 12.1354 109.797 11.25C110.526 10.3516 111.392 9.66797 112.395 9.19922C113.41 8.71745 114.543 8.47656 115.793 8.47656C116.783 8.47656 117.688 8.61979 118.508 8.90625C119.328 9.19271 120.031 9.64844 120.617 10.2734C121.216 10.8984 121.672 11.7253 121.984 12.7539C122.31 13.7826 122.473 15.0391 122.473 16.5234V30H116.809V16.5039C116.809 15.5664 116.678 14.8372 116.418 14.3164C116.158 13.7956 115.773 13.431 115.266 13.2227C114.771 13.0013 114.159 12.8906 113.43 12.8906C112.674 12.8906 112.017 13.0404 111.457 13.3398C110.91 13.6393 110.454 14.056 110.09 14.5898C109.738 15.1107 109.471 15.7227 109.289 16.4258C109.107 17.1289 109.016 17.8841 109.016 18.6914Z" fill="#ffffff"/>
</svg>
